<?xml version="1.0" encoding="utf-8"?>
<!-- Generator: Adobe Illustrator 19.1.0, SVG Export Plug-In . SVG Version: 6.00 Build 0)  -->
<!DOCTYPE svg PUBLIC "-//W3C//DTD SVG 1.1//EN" "http://www.w3.org/Graphics/SVG/1.1/DTD/svg11.dtd">
<svg version="1.1" id="Layer_1" xmlns="http://www.w3.org/2000/svg" xmlns:xlink="http://www.w3.org/1999/xlink" x="0px" y="0px"
	 viewBox="0 0 200 200" style="enable-background:new 0 0 200 200;" xml:space="preserve">
<style type="text/css">
	.st0{fill:none;stroke:#FFFFFF;stroke-width:5;}
</style>
<g>
	<path class="st0" d="M153.8,58.1c1.3,1.5,1.6,3,0.8,4.8L95.8,188.8c-0.9,1.8-2.5,2.7-4.6,2.7c-0.3,0-0.8-0.1-1.5-0.2
		c-1.2-0.4-2.2-1-2.8-2.1c-0.6-1-0.8-2.1-0.5-3.3L107.9,98l-44.2,11c-0.3,0.1-0.7,0.1-1.3,0.1c-1.3,0-2.4-0.4-3.4-1.2
		c-1.3-1.1-1.8-2.5-1.4-4.2l21.9-89.8c0.3-1,0.9-1.8,1.7-2.5c0.9-0.7,1.9-1,3-1H120c1.4,0,2.5,0.5,3.5,1.4c0.9,0.9,1.4,2,1.4,3.2
		c0,0.6-0.2,1.2-0.5,2l-18.6,50.4l43.1-10.7c0.6-0.1,1-0.2,1.3-0.2C151.5,56.5,152.7,57,153.8,58.1z"/>
</g>
</svg>
