<?xml version="1.0" encoding="utf-8"?>
<!-- Generator: Adobe Illustrator 17.1.0, SVG Export Plug-In . SVG Version: 6.00 Build 0)  -->
<!DOCTYPE svg PUBLIC "-//W3C//DTD SVG 1.1//EN" "http://www.w3.org/Graphics/SVG/1.1/DTD/svg11.dtd">
<svg version="1.1" id="Layer_1" xmlns="http://www.w3.org/2000/svg" xmlns:xlink="http://www.w3.org/1999/xlink" x="0px" y="0px"
	 viewBox="0 0 2304 1152" enable-background="new 0 0 2304 1152" xml:space="preserve">
<polyline fill="#FFFFFF" points="2304,1155 0,1152 47.5,1108.9 110.7,1126.8 247.7,1092.9 292.5,1102.5 307.8,1100.6 342.4,1115.3 
	404.5,1086.5 535.7,1110.2 565.1,1099.3 625.3,1105.7 670.7,1129.4 949.8,1086.5 1006.7,1110.2 1066.2,1076.3 1088,1098 
	1186.6,1124.3 1370.9,1086.5 1557.1,1096.1 1620.5,1124.3 1754.2,1095.5 1779.2,1107 1845.1,1092.3 1994.9,1108.9 2026.9,1093.6 
	2140.8,1123.6 2264.3,1126.2 2304,1144.1 "/>
</svg>
