<?xml version="1.0" encoding="utf-8"?>
<!-- Generator: Adobe Illustrator 17.1.0, SVG Export Plug-In . SVG Version: 6.00 Build 0)  -->
<!DOCTYPE svg PUBLIC "-//W3C//DTD SVG 1.1//EN" "http://www.w3.org/Graphics/SVG/1.1/DTD/svg11.dtd">
<svg version="1.1" id="Layer_1" xmlns="http://www.w3.org/2000/svg" xmlns:xlink="http://www.w3.org/1999/xlink" x="0px" y="0px"
	 viewBox="0 70.4 360 10.1" enable-background="new 0 70.4 360 10.1" xml:space="preserve">
<polyline fill="#646464" points="0,81 6.2,78.2 25.5,77.8 43.3,73.1 48.3,75.5 71.7,72.9 82,75.2 85.9,73.4 106.8,77.9 116.7,73.5 
	145.8,72 174.6,77.9 190,73.8 193.4,70.4 202.7,75.7 211.6,72 255.2,78.7 262.3,75 271.7,74 276.3,75.7 296.8,72 306.5,76.5 
	311.9,74.2 314.3,74.5 321.3,73 342.7,78.3 356.5,75.5 360,81 0,82.7 "/>
</svg>
