<?xml version="1.0" encoding="utf-8"?>
<!-- Generator: Adobe Illustrator 19.1.0, SVG Export Plug-In . SVG Version: 6.00 Build 0)  -->
<!DOCTYPE svg PUBLIC "-//W3C//DTD SVG 1.1//EN" "http://www.w3.org/Graphics/SVG/1.1/DTD/svg11.dtd">
<svg version="1.1" id="Layer_1" xmlns="http://www.w3.org/2000/svg" xmlns:xlink="http://www.w3.org/1999/xlink" x="0px" y="0px"
	 viewBox="0 0 200 200" style="enable-background:new 0 0 200 200;" xml:space="preserve">
<style type="text/css">
	.st0{fill:none;stroke:#FFFFFF;stroke-width:5;}
</style>
<g>
	<path class="st0" d="M190.2,67.2c0,6.4-0.7,12.9-2,19.4c-3.1,15-9.3,27.9-18.6,38.6c-9.3,10.7-21.3,19.7-36,27
		c-14.4,7.3-29.1,10.9-44.1,10.9c-9.9,0-19.5-1.6-28.8-4.7c-1-0.3-4-1.7-8.9-4.2c-4.9-2.5-8.1-3.7-9.7-3.7c-1.1,0-2.4,1.1-4,3.2
		c-1.6,2.2-3.1,4.5-4.5,7.1c-1.4,2.6-3.2,4.9-5.3,7.1c-2.1,2.2-4.1,3.2-6,3.2c-2,0-3.7-0.4-5.1-1.1c-1.4-0.7-2.5-1.5-3.1-2.4
		c-0.7-0.9-1.6-2.3-2.7-4.2c-0.1-0.3-0.3-0.6-0.6-1.1c-0.3-0.5-0.5-0.8-0.6-1c-0.1-0.2-0.2-0.5-0.3-1c-0.1-0.4-0.2-0.9-0.2-1.4
		c0-2.4,1-4.8,3.1-7.4c2.1-2.6,4.4-4.8,6.9-6.6c2.5-1.8,4.8-3.7,6.8-5.6c2.1-1.9,3.1-3.6,3.1-4.8c0-0.3-0.5-1.5-1.4-3.8
		c-0.9-2.3-1.5-3.8-1.6-4.4c-0.6-3.4-0.9-6.9-0.9-10.5c0-7.7,1.5-15.1,4.4-22.2s6.9-13.2,12-18.6s10.8-10,17.2-14
		c6.4-4,13.2-7.2,20.6-9.6c3.7-1.2,8.6-2.1,14.6-2.6c6-0.5,12.1-0.8,18.1-0.9c6-0.1,12-0.3,18-0.6c6-0.3,11.5-1.1,16.5-2.4
		c5-1.3,8.8-3.2,11.4-5.7c0.7-0.7,1.7-1.7,3-3c1.3-1.3,2.3-2.2,3-2.8c0.7-0.6,1.6-1.2,2.7-2c1.1-0.8,2.4-1.3,3.7-1.6
		c1.3-0.3,2.8-0.5,4.4-0.5c2.6,0,5,1.5,7.1,4.6c2.1,3.1,3.7,6.9,4.8,11.3c1.1,4.4,1.9,8.6,2.4,12.5C190,61.4,190.2,64.6,190.2,67.2z
		 M136.8,91.6c1.3-1.3,1.9-2.8,1.9-4.5s-0.6-3.3-1.9-4.5c-1.3-1.3-2.8-1.9-4.5-1.9c-11.6,0-22.2,1.7-32,5
		c-9.8,3.3-18.5,7.8-26.1,13.5c-7.6,5.7-15.5,13-23.7,22.1c-1.3,1.4-1.9,2.9-1.9,4.5c0,1.7,0.6,3.3,1.9,4.5c1.3,1.3,2.8,1.9,4.5,1.9
		c1.6,0,3.1-0.6,4.5-1.9c1.8-1.6,4.3-4,7.5-7.2c3.2-3.2,5.4-5.4,6.7-6.6c9.2-8.3,18.2-14.2,27-17.7c8.8-3.5,19.4-5.2,31.6-5.2
		C134,93.6,135.5,92.9,136.8,91.6z"/>
</g>
</svg>
