<?xml version="1.0" encoding="utf-8"?>
<!-- Generator: Adobe Illustrator 18.0.0, SVG Export Plug-In . SVG Version: 6.00 Build 0)  -->
<!DOCTYPE svg PUBLIC "-//W3C//DTD SVG 1.1//EN" "http://www.w3.org/Graphics/SVG/1.1/DTD/svg11.dtd">
<svg version="1.1" id="Layer_1" xmlns="http://www.w3.org/2000/svg" xmlns:xlink="http://www.w3.org/1999/xlink" x="0px" y="0px"
	 viewBox="0 0 100 100" enable-background="new 0 0 100 100" xml:space="preserve">
<g>
	<path fill="#FFFFFF" d="M49.9,8.6c11,0,21.4,4.3,29.2,12.1c7.8,7.8,12.1,18.1,12.1,29.2S86.9,71.2,79.1,79
		c-7.8,7.8-18.1,12.1-29.2,12.1S28.5,86.8,20.8,79C13,71.2,8.7,60.9,8.7,49.9S13,28.5,20.8,20.7C28.5,12.9,38.9,8.6,49.9,8.6
		 M49.9,1C22.9,1,1,22.9,1,49.9s21.9,48.9,48.9,48.9s48.9-21.9,48.9-48.9S76.9,1,49.9,1L49.9,1z"/>
	<path fill="#FFFFFF" d="M54.7,30.2c-9,0-16.2,7.3-16.2,16.2c0,2.6,0.6,5.1,1.8,7.3L26,68l5.4,5.4l13.8-13.8
		c2.7,1.9,5.9,3.1,9.5,3.1c9,0,16.2-7.3,16.2-16.2S63.6,30.2,54.7,30.2z M54.7,55c-4.7,0-8.6-3.8-8.6-8.6s3.8-8.6,8.6-8.6
		c4.7,0,8.6,3.8,8.6,8.6S59.4,55,54.7,55z"/>
</g>
</svg>
