<?xml version="1.0" encoding="utf-8"?>
<!-- Generator: Adobe Illustrator 18.0.0, SVG Export Plug-In . SVG Version: 6.00 Build 0)  -->
<!DOCTYPE svg PUBLIC "-//W3C//DTD SVG 1.1//EN" "http://www.w3.org/Graphics/SVG/1.1/DTD/svg11.dtd">
<svg version="1.1" id="Layer_1" xmlns="http://www.w3.org/2000/svg" xmlns:xlink="http://www.w3.org/1999/xlink" x="0px" y="0px"
	 viewBox="0 0 100 100" enable-background="new 0 0 100 100" xml:space="preserve">
<g>
	<path fill="#FFFFFF" d="M50,8.7c11,0,21.4,4.3,29.2,12.1c7.8,7.8,12.1,18.2,12.1,29.2s-4.3,21.4-12.1,29.2
		C71.5,87,61.1,91.3,50,91.3S28.6,87,20.8,79.2C13,71.4,8.7,61,8.7,50S13,28.6,20.8,20.8C28.6,13,39,8.7,50,8.7 M50,1
		C23,1,1,22.9,1,50S23,99,50,99S99,77,99,50S77.1,1,50,1L50,1z"/>
	<g>
		<g>
			<polygon fill="#FFFFFF" points="49.3,52.3 44.4,43.7 47.5,41.9 49.3,45.2 51.2,41.9 54.3,43.7 			"/>
		</g>
		<polygon fill="#FFFFFF" points="57.9,56.9 56.2,53.6 56.9,52.2 53.9,50.5 51.3,54.8 47.3,54.8 44.8,50.5 41.7,52.2 42.5,53.5 
			40.7,56.9 44.4,56.8 45.3,58.4 53.4,58.4 54.3,56.8 		"/>
	</g>
	<g>
		<path fill="#FFFFFF" d="M49.4,72.1c-13.4,0-28.1-3.6-29.1-13.8l0-0.4l0-15.1c0-7,6.5-10.5,10.4-12c4.9-1.9,11.6-2.9,18.7-2.9
			s13.8,1,18.7,2.9c3.9,1.5,10.4,5,10.4,12v14.4c0,7-6.5,10.5-10.4,12C63.2,71,56.6,72.1,49.4,72.1z M28,57.6
			c0.7,4.2,11.5,6.8,21.4,6.8c11.8,0,21.4-3.2,21.4-7.2V42.8c0-4-9.6-7.2-21.4-7.2S28,38.8,28,42.8v0.7L28,57.6z"/>
	</g>
</g>
</svg>
