<?xml version="1.0" encoding="utf-8"?>
<!-- Generator: Adobe Illustrator 18.0.0, SVG Export Plug-In . SVG Version: 6.00 Build 0)  -->
<!DOCTYPE svg PUBLIC "-//W3C//DTD SVG 1.1//EN" "http://www.w3.org/Graphics/SVG/1.1/DTD/svg11.dtd">
<svg version="1.1" id="Layer_1" xmlns="http://www.w3.org/2000/svg" xmlns:xlink="http://www.w3.org/1999/xlink" x="0px" y="0px"
	 viewBox="0 0 100 100" enable-background="new 0 0 100 100" xml:space="preserve">
<g>
	<path fill="#FFFFFF" d="M50,8.7c11,0,21.4,4.3,29.2,12.1c7.8,7.8,12.1,18.2,12.1,29.2S87,71.3,79.2,79.1C71.4,86.9,61,91.2,50,91.2
		s-21.4-4.3-29.2-12.1C13,71.3,8.7,61,8.7,49.9S13,28.5,20.8,20.7C28.6,12.9,38.9,8.7,50,8.7 M50,1c-27,0-49,21.9-49,49
		s21.9,49,49,49s49-21.9,49-49S77,1,50,1L50,1z"/>
	<g>
		<polygon fill="#FFFFFF" points="61.3,34.9 54.7,31.1 50.6,38.1 46.5,31.1 39.9,34.9 50.6,53.5 		"/>
		<polygon fill="#FFFFFF" points="69.1,63.5 65.3,56.2 67,53.4 60.3,49.5 54.9,58.9 46.3,58.9 40.8,49.5 34.2,53.4 35.7,56 
			31.8,63.5 39.8,63.1 41.8,66.6 59.3,66.6 61.3,63.2 		"/>
	</g>
</g>
</svg>
