<?xml version="1.0" encoding="utf-8"?>
<!-- Generator: Adobe Illustrator 18.0.0, SVG Export Plug-In . SVG Version: 6.00 Build 0)  -->
<!DOCTYPE svg PUBLIC "-//W3C//DTD SVG 1.1//EN" "http://www.w3.org/Graphics/SVG/1.1/DTD/svg11.dtd">
<svg version="1.1" id="Layer_1" xmlns="http://www.w3.org/2000/svg" xmlns:xlink="http://www.w3.org/1999/xlink" x="0px" y="0px"
	 viewBox="0 0 100 100" enable-background="new 0 0 100 100" xml:space="preserve">
<g>
	<path fill="#FFFFFF" d="M49.9,8.8c11,0,21.4,4.3,29.2,12.1s12.1,18.2,12.1,29.2s-4.2,21.4-12,29.3C71.4,87.2,61,91.5,49.9,91.5
		s-21.4-4.3-29.2-12.1C12.9,71.5,8.6,61.2,8.6,50.1s4.3-21.4,12.1-29.2S38.9,8.8,49.9,8.8 M49.9,1.1c-27.1,0-49,22-49,49
		s22,49,49,49s49-22,49-49S77,1.1,49.9,1.1L49.9,1.1z"/>
	<g>
		<path fill="#FFFFFF" d="M72.5,67.5H45.9V33.7h26.5L72.5,67.5L72.5,67.5z M53.6,59.8h11.1V41.4H53.6V59.8z"/>
	</g>
	<g>
		<rect x="28.4" y="47" fill="#FFFFFF" width="13" height="20.5"/>
	</g>
</g>
</svg>
