<?xml version="1.0" encoding="utf-8"?>
<!-- Generator: Adobe Illustrator 18.0.0, SVG Export Plug-In . SVG Version: 6.00 Build 0)  -->
<!DOCTYPE svg PUBLIC "-//W3C//DTD SVG 1.1//EN" "http://www.w3.org/Graphics/SVG/1.1/DTD/svg11.dtd">
<svg version="1.1" id="Layer_1" xmlns="http://www.w3.org/2000/svg" xmlns:xlink="http://www.w3.org/1999/xlink" x="0px" y="0px"
	 viewBox="0 0 100 100" enable-background="new 0 0 100 100" xml:space="preserve">
<g>
	<path fill="#FFFFFF" d="M50,8.7c11,0,21.4,4.3,29.2,12.1c7.8,7.8,12.1,18.2,12.1,29.2c0,11-4.3,21.4-12.1,29.2
		C71.4,86.9,61,91.2,50,91.2s-21.4-4.3-29.2-12.1C13,71.3,8.7,61,8.7,49.9c0-11,4.3-21.4,12.1-29.2C28.6,12.9,38.9,8.7,50,8.7 M50,1
		c-27,0-49,21.9-49,49s21.9,49,49,49s49-21.9,49-49S77,1,50,1L50,1z"/>
	<path fill="#FFFFFF" d="M75,32.1H24.9v32.6h13.8v7.7H62v-7.7h13V32.1z M67.4,57.1H32.6V39.8h34.8V57.1z"/>
</g>
</svg>
