<?xml version="1.0" encoding="utf-8"?>
<!-- Generator: Adobe Illustrator 17.1.0, SVG Export Plug-In . SVG Version: 6.00 Build 0)  -->
<!DOCTYPE svg PUBLIC "-//W3C//DTD SVG 1.1//EN" "http://www.w3.org/Graphics/SVG/1.1/DTD/svg11.dtd">
<svg version="1.1" id="Layer_1" xmlns="http://www.w3.org/2000/svg" xmlns:xlink="http://www.w3.org/1999/xlink" x="0px" y="0px"
	 viewBox="0 525.9 3456 100.1" enable-background="new 0 525.9 3456 100.1" xml:space="preserve">
<circle fill="#3199FF" cx="170.5" cy="714.3" r="160.5"/>
<circle fill="#3199FF" cx="2024.6" cy="687.4" r="160.5"/>
<circle fill="#3199FF" cx="2595.1" cy="690.9" r="160.5"/>
<circle fill="#3199FF" cx="1091.4" cy="687.4" r="160.5"/>
<circle fill="#3199FF" cx="331" cy="646.8" r="93"/>
<circle fill="#3199FF" cx="708.2" cy="666.5" r="93"/>
<circle fill="#3199FF" cx="1583.6" cy="619.9" r="93"/>
<circle fill="#3199FF" cx="3128.7" cy="619.9" r="93"/>
<circle fill="#3199FF" cx="550.7" cy="576" r="40.5"/>
<circle fill="#3199FF" cx="482" cy="657" r="40.5"/>
<circle fill="#3199FF" cx="954.9" cy="602.5" r="40.5"/>
<circle fill="#3199FF" cx="2386.7" cy="611.2" r="26.2"/>
<circle fill="#3199FF" cx="2260.8" cy="597.9" r="13.6"/>
<circle fill="#3199FF" cx="1792.9" cy="624.8" r="13.6"/>
<circle fill="#3199FF" cx="1806.5" cy="547.6" r="7.4"/>
<circle fill="#3199FF" cx="2476.9" cy="563.8" r="6.7"/>
<circle fill="#3199FF" cx="2144.6" cy="597.9" r="40.5"/>
<circle fill="#3199FF" cx="2316.6" cy="657.3" r="40.5"/>
<circle fill="#3199FF" cx="2329.5" cy="612.6" r="40.5"/>
<circle fill="#3199FF" cx="2705.7" cy="573.9" r="16.5"/>
<circle fill="#3199FF" cx="1418.5" cy="553.8" r="16.5"/>
<circle fill="#3199FF" cx="2926.7" cy="544.5" r="16.5"/>
<circle fill="#3199FF" cx="2770.2" cy="603.8" r="27.8"/>
<circle fill="#3199FF" cx="2825" cy="557.4" r="9.3"/>
<circle fill="#3199FF" cx="2416.8" cy="585.5" r="9.3"/>
<circle fill="#3199FF" cx="2386.7" cy="540.2" r="9.3"/>
<circle fill="#3199FF" cx="2877" cy="568.9" r="4.3"/>
<circle fill="#3199FF" cx="944" cy="562" r="16.5"/>
<circle fill="#3199FF" cx="794.4" cy="626" r="26.2"/>
<circle fill="#3199FF" cx="784.7" cy="553.8" r="16.5"/>
<circle fill="#3199FF" cx="437.3" cy="601" r="8.5"/>
<circle fill="#3199FF" cx="600.2" cy="626" r="16.5"/>
<circle fill="#3199FF" cx="382.8" cy="542.4" r="16.5"/>
<circle fill="#3199FF" cx="84.5" cy="562" r="24.8"/>
<circle fill="#3199FF" cx="872.7" cy="632.4" r="16.5"/>
<circle fill="#3199FF" cx="1384" cy="626" r="40.5"/>
<circle fill="#3199FF" cx="2868.7" cy="690.9" r="93"/>
<circle fill="#3199FF" cx="1674.7" cy="648.5" r="63"/>
<circle fill="#3199FF" cx="1886.6" cy="616.8" r="63"/>
<circle fill="#3199FF" cx="1741.7" cy="583.4" r="19.4"/>
<circle fill="#3199FF" cx="1459.1" cy="590.4" r="9"/>
<circle fill="#3199FF" cx="3305" cy="590.4" r="9"/>
<circle fill="#3199FF" cx="3004.6" cy="619" r="9"/>
<circle fill="#3199FF" cx="591.2" cy="567" r="9"/>
<circle fill="#3199FF" cx="838.5" cy="606.9" r="9"/>
<circle fill="#3199FF" cx="859.7" cy="561.5" r="3.5"/>
<circle fill="#3199FF" cx="29" cy="602.5" r="9"/>
<circle fill="#3199FF" cx="1263" cy="606.9" r="63"/>
<circle fill="#3199FF" cx="3409.3" cy="553.8" r="16.5"/>
<circle fill="#3199FF" cx="3374.7" cy="626" r="40.5"/>
<circle fill="#3199FF" cx="2953.3" cy="579.6" r="33"/>
<circle fill="#3199FF" cx="3242" cy="638.4" r="63"/>
</svg>
