<?xml version="1.0" encoding="utf-8"?>
<!-- Generator: Adobe Illustrator 17.1.0, SVG Export Plug-In . SVG Version: 6.00 Build 0)  -->
<!DOCTYPE svg PUBLIC "-//W3C//DTD SVG 1.1//EN" "http://www.w3.org/Graphics/SVG/1.1/DTD/svg11.dtd">
<svg version="1.1" id="Layer_1" xmlns="http://www.w3.org/2000/svg" xmlns:xlink="http://www.w3.org/1999/xlink" x="0px" y="0px"
	 viewBox="0 534 2880 84.3" enable-background="new 0 534 2880 84.3" xml:space="preserve">
<polyline fill="#E6EBEB" points="0,618.8 49.6,596.4 204,593.2 346.4,555.6 386.4,574.8 573.6,554 656,572.4 687.2,558 854.4,594 
	933.6,558.8 1166.4,546.8 1396.8,594 1520,561.2 1547.2,534 1621.6,576.4 1692.8,546.8 2041.6,600.4 2098.4,570.8 2173.6,562.8 
	2210.4,576.4 2374.4,546.8 2452,582.8 2495.2,564.4 2514.4,566.8 2570.4,554.8 2741.6,597.2 2852,574.8 2880,618.8 0,632.4 "/>
</svg>
