<?xml version="1.0" encoding="utf-8"?>
<!-- Generator: Adobe Illustrator 19.1.0, SVG Export Plug-In . SVG Version: 6.00 Build 0)  -->
<!DOCTYPE svg PUBLIC "-//W3C//DTD SVG 1.1//EN" "http://www.w3.org/Graphics/SVG/1.1/DTD/svg11.dtd">
<svg version="1.1" id="Layer_1" xmlns="http://www.w3.org/2000/svg" xmlns:xlink="http://www.w3.org/1999/xlink" x="0px" y="0px"
	 viewBox="-297 351 404.7 300" style="enable-background:new -297 351 404.7 300;" xml:space="preserve">
<style type="text/css">
	.st0{fill:none;stroke:#F9F9F9;stroke-width:3;stroke-linecap:round;stroke-linejoin:round;stroke-miterlimit:10;}
</style>
<g>
	<path class="st0" d="M9,402.9c14.1,0,25-10.9,25-25s-10.9-25-25-25s-25,10.9-25,25C-16,392-5.1,402.9,9,402.9z"/>
	<path class="st0" d="M44.2,524.1c-8.3,0-12.7-4.7-12.7-12.8v-94.8h-72v23.7H-24c8.3,0,7.2,1.8,7.2,9.8v61.4
		c0,8.1,0.4,12.8-7.9,12.8h-6.7h-17.5c-7.2,0-12-3.5-12-10.9V395.4c0-7.2,4.8-10.4,12-10.4H-33v-23.7h-107.6V385h15.3
		c7.2,0,8.4,1.8,8.4,7.5v47.5h-63.6v-43.8c0-9.7,7.3-11.3,14.4-11.3h9.3v-23.7h-107.5V385h22c7.2,0,10.2,1.8,10.2,6.7v120.5
		c0,7.2-3.1,11.8-10.2,11.8H-260v28h103.4v-28h-9.3c-7.2,0-14.4-3.5-14.4-10.3v-49h63.6v49.5c0,7.7-1.2,9.8-8.4,9.8h-15.3v28h104.2
		h5h86.6v-28L44.2,524.1L44.2,524.1z"/>
	<path class="st0" d="M37.9,421.2c9.4-3.6,15.9-12.5,15.9-23.3c0-7.2-2.9-13.6-7.5-18.1"/>
	<path class="st0" d="M-160.9,440.6v-24.3c0-9.7,7.7-11.7,14.8-11.7h8.9v-15.7"/>
	<polyline class="st0" points="-140.8,385.1 -121,404.6 -117.2,404.6 	"/>
	<line class="st0" x1="-16" y1="378.2" x2="-32.9" y2="361.3"/>
	<path class="st0" d="M-40.5,524.5V415.3c0-7.2,4.4-10.8,11.6-10.8h15.5v-15.6"/>
	<polyline class="st0" points="-40.8,440.2 -21,460.5 -17.2,460.5 	"/>
	<polyline class="st0" points="51,524.5 51,430.8 37.9,421.2 31.5,416.4 	"/>
	<polyline class="st0" points="-140.5,552 -121,572.4 -16.5,572.4 -11.5,572.4 74.7,572.4 74.7,544.4 55.2,524.1 	"/>
	<polyline class="st0" points="-160.9,524.5 -160.9,484.2 -117.2,484.2 	"/>
	<line class="st0" x1="-141" y1="544.4" x2="-156.6" y2="524.1"/>
	<polyline class="st0" points="-260,552.1 -240.5,572.4 -137.2,572.4 -137.2,555.8 	"/>
	<polyline class="st0" points="-264.5,385.1 -244.1,404.6 -232.5,404.6 	"/>
	<line class="st0" x1="-156.6" y1="361.3" x2="-140.5" y2="379.1"/>
	<line class="st0" x1="-8.6" y1="395.9" x2="11.9" y2="416.4"/>
	<line class="st0" x1="26.3" y1="359.9" x2="46.3" y2="379.8"/>
	<path class="st0" d="M-201,636.8c0,0,1.6,10.3,11.1,10.3c18.7,0,20.2-1.5,50-56.3c-16.7,30.3-30.8,56.1-16.4,56.1
		c12.9,0,19.4-12,24-20.1c2.8-0.4,20.3-2.7,29.7-21.6c3.4-6.9,3.5-15.1-6.9-12.9c-4.7,1-11.1,12.5-13.3,16.3
		c-6.4,10.8-19,38.3-19,38.3s8.7-19,18.2-19c13.1,0-8,19,4,19c4.2,0,9.9-9.7,14.1-17.7c6.4,4,16.7,1.4,20.8-6.9
		c8.6-17.3-12.2-10.8-20.8,6.9c-4.7,9.6-1.9,17.9,9.5,17.9c13.9,0,22.1-24,25.8-31.8c8.4,2.1,11.9,2.1,19.2-0.9
		c-3,4.3-20.3,32.3-7,32.3c5.7,0,9.9-9.7,14.1-17.7c6.4,4,16.7,1.4,20.8-6.9c8.6-17.3-12.2-10.8-20.8,6.9
		c-4.7,9.6-1.9,17.9,9.5,17.9c13.9,0,17.5-3.4,20.9-8.9"/>
	<path class="st0" d="M-132.8,605.9c3.2-1.9-24.6,0.7-30.2,2.7"/>
</g>
</svg>
