<?xml version="1.0" encoding="utf-8"?>
<!-- Generator: Adobe Illustrator 19.1.0, SVG Export Plug-In . SVG Version: 6.00 Build 0)  -->
<!DOCTYPE svg PUBLIC "-//W3C//DTD SVG 1.1//EN" "http://www.w3.org/Graphics/SVG/1.1/DTD/svg11.dtd">
<svg version="1.1" id="Layer_1" xmlns="http://www.w3.org/2000/svg" xmlns:xlink="http://www.w3.org/1999/xlink" x="0px" y="0px"
	 viewBox="0 0 320 320" style="enable-background:new 0 0 320 320;" xml:space="preserve">
<style type="text/css">
	.st0{fill:none;stroke:#FDC26B;stroke-width:5;stroke-miterlimit:10;}
</style>
<path class="st0" d="M190,271c0,0,49.8-13.5,61.7-20.2c11.9-6.7,20.2-12.7,26.5-22.2c6.3-9.5,13.1-20.6,10.1-33.5
	c-1.1-4.6-25.5-114.8-25.5-114.8s-5.1-18.6-19.4-24.5c-14.2-5.9-19-7.5-47.5-3.6S78.1,78.7,78.1,78.7s-16.2,2-26.5,12.3
	S35,109.6,35.8,123.8s21.4,116.3,28.9,128.6c7.5,12.3,16.6,19,28.1,23.3c11.5,4.4,46,7.1,69.3,1.6C185.3,271.8,190,271,190,271z"/>
<path class="st0" d="M192.8,52.7c0,0-3.6-24.2-6.7-30.1c-3.2-5.9-3.6-7.5-17.4-5.5c-13.8,2-71.6,13-81.1,17.4
	c-8.1,3.8-8.7,7.5-7.5,13.4c1.2,5.9,6.8,28.7,6.8,28.7"/>
<path class="st0" d="M255.9,248.4l3.8,19c0,0-16.6,20.6-53,28.1s-77.1,12.7-89.8,2.8l-4.5-18.8"/>
<path class="st0" d="M231.6,200.2c0,0-18.2,23.3-43.9,29.3c-25.7,5.9-59.3,11.1-72.8-2.4"/>
<path class="st0" d="M239.1,207.7c0,0-4.4-11.1-17.8-11.1"/>
<path class="st0" d="M192.4,229c0,0-3.2-22.5,9.8-34.9s22.5,10.9,22.5,10.9"/>
<path class="st0" d="M114.9,235.6c0,0-3.8-8,7.1-13.6"/>
<path class="st0" d="M230.2,123.4c0,0-12.5-31.6-57-9.5"/>
<path class="st0" d="M133.1,123.4c0,0-40.4-9.5-48.3,32.8"/>
<ellipse transform="matrix(-0.9698 0.2439 -0.2439 -0.9698 435.4519 258.6407)" class="st0" cx="201.7" cy="156.3" rx="15.7" ry="19.4"/>
<ellipse transform="matrix(-0.9698 0.2439 -0.2439 -0.9698 286.2127 315.4915)" class="st0" cx="123.6" cy="175.5" rx="15.7" ry="19.4"/>
<line class="st0" x1="209.8" y1="219" x2="208.6" y2="201.1"/>
</svg>
