<?xml version="1.0" encoding="utf-8"?>
<!-- Generator: Adobe Illustrator 19.1.0, SVG Export Plug-In . SVG Version: 6.00 Build 0)  -->
<!DOCTYPE svg PUBLIC "-//W3C//DTD SVG 1.1//EN" "http://www.w3.org/Graphics/SVG/1.1/DTD/svg11.dtd">
<svg version="1.1" id="Layer_1" xmlns="http://www.w3.org/2000/svg" xmlns:xlink="http://www.w3.org/1999/xlink" x="0px" y="0px"
	 viewBox="80 48.5 512.7 105.5" style="enable-background:new 80 48.5 512.7 105.5;" xml:space="preserve">
<style type="text/css">
	.st0{fill:#FFA000;}
</style>
<g>
	<path class="st0" d="M112.9,86.6c-9.6-2.5-11-4.3-11-5.7c0-3.5,17.4-15.9,32.9-16.8c-0.9,1.2-1.7,2.3-1.7,3.1
		c0,0.9,0.5,1.3,0.8,1.3c0.1,0,0.3-0.1,0.4-0.2c0.9-0.5,11.4-0.1,14-2.4c0.6-0.5,1.1-0.6,1.6-1.6c0.4-0.9,0.6-2.5,0.6-3.6
		c0-1.8-4.4-4.3-13-4.3c-15.9,0-44.9,11.5-44.9,25.4c0,6.4,5.4,10.1,15.9,12.6c10,2.4,17.8,4.5,17.8,7.3c0,4-14.4,11.9-28,11.9
		c-5,0-11.1-1.9-11.1-3.6c0-0.4,0.6-0.8,0.6-1.2c0-0.3-0.3-0.5-0.8-0.5c-0.6,0-5.1,1.4-5.1,5.7c0,3.7,3.5,8.3,13.9,8.3
		c24.3,0,39.4-11.4,39.4-20.2C135.4,92.7,122.6,89.1,112.9,86.6z"/>
	<path class="st0" d="M195.7,88.9c0-2.4-1.8-4-4.2-4c-6.8,0-13.7,7.2-17.9,11.9c1.3-2.1,5.7-8.2,5.7-10.3c0-0.8-0.2-1.7-1.1-1.7
		c-2.4,0-5.3,0.6-6.8,2.5c-1.6,2-2.6,4.2-3.9,6.3c-3.3,5.4-6.5,10.9-9.7,16.4c-2.9,2.6-6.8,5.9-9.4,5.9c-1.4,0-2.2-0.4-2.2-2.2
		c0-0.5,0.1-1.1,0.2-1.7c0.6-4.5,13.8-26.9,17-31.8c4.1-0.2,7.3-0.7,11.4-1.1c1.3-0.1,3.6-0.8,3.6-2.6c0-0.7-0.3-0.9-0.8-1.3
		c-1-0.7-1.3-1.9-2.4-2.4c-0.4-0.1-1.4-0.2-2.4-0.2s-3.8,0.2-4.4,0.3c0.7-1.1,4.5-6.9,4.5-7.6c0-0.5-0.5-1.2-1-1.2
		c-0.7,0-0.7-0.4-1.8-0.4c-0.7,0-1.4,0.3-2.1,0.3c-0.9,0-1,0.2-1.6,0.9c-2.3,2.5-4.2,5.5-6.1,8.2c-4.2,0.2,0.2,0-4,0.2
		c-1.9,0.1-3.8,0.1-5.7,0.3c-1.5,0.1-5.1,2.1-5.6,3.5c-0.3,0.9-1.4,1.5-1.4,2.2c0,1.7,2.4,2.2,3.7,2.2h0.4c1,0,7.7-0.8,7.7-0.8
		c-4,6.2-16.4,26.4-16.5,33.3c0,5.7,2.4,7.8,6.9,8.7c0.4,0.1,0.8,0.1,1.2,0.1c2.4,0,5-1.2,7.3-2.7c1,0.5,2.7,1.1,3.3,1.1
		c1,0,2.1-1.1,2.7-1.9c2.9-4,6.1-7.8,9.4-11.5c2.2-2.4,14.3-15.1,16.6-15.3l0.1,0.1c-1.6,1.8-3.3,4.4-3.3,6.9c0,1.7,1,3.4,2.9,3.4
		c1.2,0,1.9-0.6,2.5-1.4C190.4,99.2,195.7,91.5,195.7,88.9z"/>
	<path class="st0" d="M212.6,79.9c3.4,0,7.2-4.4,7.2-7.7c0-1.6-1-2.5-2.6-2.5c-3.6,0-7.2,4-7.2,7.6C210,79,210.9,79.9,212.6,79.9z"
		/>
	<path class="st0" d="M320.7,107.1c-0.3,0-0.7,0.1-1,0.4c-5.8,5.3-12.8,11.6-19.1,16.9c5.3-10.9,18.5-32.5,19.2-34
		c0.4-0.8,0.6-1.2,0.6-1.6c0-0.5-0.4-0.8-0.8-1.4c-0.5-0.7-3-1-3.4-1c-1.6,0-3.5,3.1-5.4,5.9c-6.5,9.7-20.2,22-22.5,22
		c-0.2,0-0.4-0.1-0.4-0.4c0-2.9,11.7-21.2,11.7-24c0-2.1-2.5-3.4-3.4-3.4c-1.7,0-3.3,5.3-7.5,11.8c-2.6,4.7-4.4,7.6-5.8,9.9
		c-7.9,4.2-14.6,10.2-17.5,12.7c8-14.1,15-24.8,20.1-32.2c0.1-0.2,1.1-0.8,1.1-1.4c0-0.1,0-0.1,0-0.2c-0.4-0.9-0.4-2.3-1.6-2.3
		c-2.4,0-4.7-0.1-6.8,2.2c-0.4-0.9-1.8-1.7-3.9-1.7c-9,0-27.8,11.8-31.4,26c-2.6,2.4-5.6,4.8-7.8,4.8c-1.3,0-2.7-0.5-2.7-2
		c0-3.1,5-10.5,6.5-12.7c1.7-2.7,7.1-9.9,7.1-12.6c0-2.4-1.9-4-4.2-4c-6.9,0-13.7,7.2-18,11.9c1.3-2.1,5.7-8.2,5.7-10.3
		c0-0.8-0.1-1.7-1.1-1.7c-2.4,0-5.3,0.6-6.8,2.5c-1.6,2-2.6,4.2-3.9,6.3c-3.2,5.3-6.4,10.7-9.5,16.1c-2.5,2.7-6.1,6.3-9.6,6.3
		c-1.1,0-2.3-0.3-2.3-1.5c0-2.1,2.3-5.3,3.3-7.1c1.3-2.2,10.6-18.3,10.6-19.2c0-1.4-1.8-3.6-3.3-3.6c-3.8,0-10.7,7.6-10.7,8.3
		c0,1,1.8,1.9,1.8,2.9c0,0.7-9.8,15-9.8,19.4c0,3.9,4.1,7.7,8.1,7.7c2.4,0,5.6-0.9,8.6-2.6c1,0.4,2.3,0.9,2.8,0.9
		c1.1,0,2.2-1.1,2.8-1.9c2.9-3.9,6-7.8,9.3-11.5c2.2-2.4,14.3-15.1,16.6-15.3l0.1,0.1c-0.1,0.9-1.9,3.5-2.4,4.2
		c-3.7,5.5-8.6,13-8.6,18.7c0,4.4,3.9,7.1,7.5,7.2c3.4,0,6.7-1.9,9.5-4.1c1,2.5,3.6,3.2,6.3,3.2c2.8,0,9.3-3.9,16.1-11
		c-8.1,13.1-8.1,12.8-8.9,14c-1.3,1.6-14.6,10.2-14.6,18.8c0,3,1.6,4.8,4.8,4.8c1.6,0,3.1-0.6,3.9-1.9c1.7-2.9,4.6-7,9.6-13
		c5.7-6.9,14.3-12.6,20.1-16.3c0,0.1,0,0.3,0,0.4c0,1.2,0.3,3,1.6,3.9c1.1,0.8,2.4,1.2,3.5,1.2h0.3c5-0.5,10.4-5.8,15-10.9
		c-4.1,7.7-5.9,11.4-6.7,12.5c-1,1.4-7.4,6.3-11.1,13.3c-1.1,2-1.9,4.5-1.9,6.5c0,2.3,1.1,4.1,4.1,4.1c0.4,0,0.8,0,1.2-0.1
		c4.9-0.6,9.6-11.4,10.5-12.4c8.7-9.4,15.7-15.7,25.1-22.9c0.3-0.3,0.4-0.9,0.4-1.6C322.1,108.9,321.7,107.1,320.7,107.1z
		 M249.9,115.2c-0.3,0-0.4-0.3-0.4-0.8c0-3.7,8-20,26.3-24C261.1,108.6,251,115.2,249.9,115.2z"/>
	<path class="st0" d="M387.4,96.9c0-1.1-0.5-1.7-1.1-1.7c-0.2,0-0.4,0.1-0.4,0.4c-0.2,1.6-18.9,18.7-30.1,18.7c-4.3,0-6-2.7-6-6.2
		c0-9.3,8-21.8,17.1-30.2c8.5-7.8,19.7-13.5,25.1-13.5c1.1,0,1.6,0.4,1.6,1.2c0,3.5-11.1,13.9-14.8,13.9c-0.7,0-1.3-0.1-1.3-0.5
		c0-0.1,0-0.3,0.2-0.4c-1.1,0-1.6,2.7-1.6,3.3c0,1.6,2.2,4.1,5.3,4.1c5.9,0,21.2-13.3,21.2-21.6c0-4.7-5.8-7-9-7
		c-22.6,0-51.5,28-51.5,50.1c0,8.1,6.8,13.9,12.6,13.9c18,0,31.3-15.1,32-18.5C387.1,100.3,387.4,98.4,387.4,96.9z"/>
	<path class="st0" d="M421.8,84.9c-6.8,0-13.7,7.2-17.9,11.9c1.3-2.1,5.7-8.2,5.7-10.3c0-0.8-0.2-1.7-1.1-1.7
		c-2.4,0-5.3,0.6-6.8,2.5c-1.6,2-2.6,4.2-3.9,6.3c-3.9,6.5-7.8,13.1-11.7,19.8c-1,1.7-2.7,3.9-2.7,5.5c0,0.3,0,0.5,0.3,0.7
		c0.4,0.4,3.3,1.6,4.1,1.6c1,0,2.1-1.1,2.7-1.9c2.9-4,6.1-7.8,9.4-11.5c2.2-2.4,14.3-15.1,16.6-15.3l0.1,0.1
		c-1.6,1.8-3.3,4.4-3.3,6.9c0,1.7,1,3.4,2.9,3.4c1.2,0,1.9-0.6,2.5-1.4c1.7-2.3,7-10.1,7-12.6C426,86.5,424.2,84.9,421.8,84.9z"/>
	<path class="st0" d="M529.5,79.9c3.4,0,7.2-4.4,7.2-7.7c0-1.6-1-2.5-2.6-2.5c-3.6,0-7.2,4-7.2,7.6C526.9,79,527.8,79.9,529.5,79.9z
		"/>
	<path class="st0" d="M560,81.8c-2.9,0-4.7,2.2-4.7,3.6c0,1.5,1,1.6,1,3.2c0,2.3-3.7,8.4-8.2,14c-3.7,4.6-12.6,12.8-14.2,12.8
		c-0.2,0-0.3-0.1-0.3-0.3c0-3.7,12.1-23.5,12.1-26.8c0-1.5-1.5-2.9-3.6-2.9c-4,0-11.6,8.9-12.4,9.7c-0.1,0.2-0.2,0.4-0.2,0.7
		c0,1.3,1.5,3.2,2,3.2c0.5,0,1.7-0.9,2.9-1.7c-1.4,2.3-3.7,6.5-5.4,10.6c-0.2-0.5-0.4-0.8-0.8-0.8c-1.4,0-7.2,9-12.6,9
		c-1.1,0-2.3-0.3-2.3-1.5c0-2.1,2.3-5.3,3.3-7.1c1.3-2.2,10.6-18.3,10.6-19.2c0-1.4-1.8-3.6-3.3-3.6c-3.8,0-10.7,7.6-10.7,8.3
		c0,1,1.8,1.9,1.8,2.9c0,0.5-4,6.5-6.9,11.9c-2.6,2.1-8.5,8.2-12,8.2c-1.4,0-2.2-0.4-2.2-2.2c0-0.5,0.1-1.1,0.2-1.7
		c0.6-4.5,13.8-26.9,17-31.8c4.1-0.2,7.3-0.7,11.4-1.1c1.3-0.1,3.6-0.8,3.6-2.6c0-0.7-0.3-0.9-0.8-1.3c-1-0.7-1.3-1.9-2.4-2.4
		c-0.4-0.1-1.4-0.2-2.4-0.2c-1.1,0-3.8,0.2-4.4,0.3c0.7-1.1,4.5-6.9,4.5-7.6c0-0.5-0.5-1.2-1-1.2c-0.7,0-0.7-0.4-1.8-0.4
		c-0.7,0-1.4,0.3-2.1,0.3c-0.9,0-1,0.2-1.6,0.9c-2.3,2.5-4.2,5.5-6.1,8.2c-4.2,0.2,0.2,0-4,0.2c-1.9,0.1-3.8,0.1-5.7,0.3
		c-1.5,0.1-5.1,2.1-5.6,3.5c-0.3,0.9-1.4,1.5-1.4,2.2c0,1.7,2.4,2.2,3.7,2.2h0.4c1,0,7.7-0.8,7.7-0.8c-3.3,5-12,19.3-15.3,28.2
		c-2.1,2.4-6.6,7.2-9.4,7.2c-1.1,0-1.4-1.3-1.4-2.4c0-0.5,0-0.9,0.1-1.2c1.5-8,8.9-20.2,9.6-20.9c0.4-0.4,0.6-1.2,0.6-1.9
		c0-1.6-1.5-2.3-3.4-2.3c-1.8,0-2.5,0.2-4,2.4c-0.5-1.5-2.4-2.8-5.8-2.8c-8.3,0-21.5,10-25.5,21c-4.1,3.2-10,8.8-16.2,8.8
		c-2.4,0-5.9-0.4-5.9-3.5c0-2,7.6-6.2,9.4-7.2c1.4-0.8,2.9-0.8,4.2-1.9c0.6-0.5,1.6-1.2,1.6-2c0-0.7-1.2-2.5-1.9-2.9
		c-0.3-0.1-0.6-0.1-0.9-0.1c-2.3,0-4.3,1.5-6.7,1.5c-0.2,0-0.9,0-0.9-0.4c0-1.6,6.1-5.7,7.6-6.5c1.2-0.7,2.4-1.3,3.6-1.7
		c-0.1,0.4-0.2,0.7-0.2,1.2c0,1.3,0.2,2,1.6,2c4,0,7.8-3.4,7.8-7.4c0-1.9-2.9-2.7-4.5-2.7c-7.6,0-22.3,6.3-22.3,15
		c0,2.4,0.2,4.1,2.7,5.2c-4.2,1.6-8.5,4.4-8.5,9.3c0,6.5,6.9,8.2,12.2,8.2c6.4,0,12.2-3.3,16.4-6.5c0,0,0,0,0,0
		c0.4,3.2,3.1,6.1,6.9,6.1c4.5,0,11.7-5.1,16.6-11.5c-0.6,1.3-0.9,2.8-0.9,4.2c0,3.7,2,7.4,6.6,7.4c3.5,0,7.3-2.5,10.1-5.1
		c0.9,3.1,3,4.5,6.5,5.1c0.4,0.1,0.8,0.1,1.2,0.1c3.8,0,7.9-2.9,10.9-5.4c1.1,3,4.4,5.5,7.7,5.5c3.7,0,9.2-2.1,12.9-6
		c0,0.2,0,0.3,0,0.5c0,3.6,2.7,5.2,4.9,5.2c4.7,0,13.8-7,21.1-15.2c6.7-7.6,11.9-16.5,11.9-20.6C564.2,83.1,562.5,81.8,560,81.8z
		 M470.8,102.2c-3.4,4.2-13.5,13-15.2,13c-0.6,0-0.9-0.4-0.9-1.1c0-2.7,3.8-9.4,7.7-13.5c6.9-7.2,12.7-8.5,15.8-8.5
		C475.8,95.4,472.8,99.7,470.8,102.2z"/>
	<path class="st0" d="M588.5,107.1c-0.4,0-0.8,0.3-1,0.4c-4.1,3.1-10.3,9.2-16.8,9.2c-2.4,0-5.9-0.4-5.9-3.5c0-2,7.6-6.2,9.4-7.2
		c1.4-0.8,2.9-0.8,4.2-1.9c0.6-0.5,1.6-1.2,1.6-2c0-0.7-1.2-2.5-1.9-2.9c-0.3-0.1-0.6-0.1-0.9-0.1c-2.3,0-4.3,1.5-6.7,1.5
		c-0.2,0-0.9,0-0.9-0.4c0-1.6,6.1-5.7,7.6-6.5c1.2-0.7,2.4-1.3,3.6-1.7c-0.1,0.4-0.2,0.7-0.2,1.2c0,1.3,0.2,2,1.6,2
		c4,0,7.8-3.4,7.8-7.4c0-1.9-2.9-2.7-4.5-2.7c-7.6,0-22.3,6.3-22.3,15c0,2.4,0.2,4.1,2.7,5.2c-4.2,1.6-8.5,4.4-8.5,9.3
		c0,6.5,6.9,8.2,12.2,8.2c7.2,0,13.8-4.3,18-7.7c0.7-0.5,1.6-1.4,1.8-2.1c0.3-0.8,0.3-1.6,0.3-2.4
		C589.7,109.8,589.7,107.1,588.5,107.1z"/>
</g>
</svg>
