<?xml version="1.0" encoding="utf-8"?>
<!-- Generator: Adobe Illustrator 19.1.0, SVG Export Plug-In . SVG Version: 6.00 Build 0)  -->
<!DOCTYPE svg PUBLIC "-//W3C//DTD SVG 1.1//EN" "http://www.w3.org/Graphics/SVG/1.1/DTD/svg11.dtd">
<svg version="1.1" id="Layer_1" xmlns="http://www.w3.org/2000/svg" xmlns:xlink="http://www.w3.org/1999/xlink" x="0px" y="0px"
	 viewBox="-319 448.5 359.8 105.5" style="enable-background:new -319 448.5 359.8 105.5;" xml:space="preserve">
<style type="text/css">
	.st0{fill:#FFA000;}
</style>
<g>
	<path class="st0" d="M-191.1,477.7v11.6h11.9v7.1h-12v19.9c0,4.3,1.7,7,5.8,7c1.7,0,3.4-0.5,5.1-1.4l2.3,6.8
		c-2.7,1.3-5,1.8-7.8,1.9c-8.7,0.2-13.5-5-13.5-14.3v-19.9h-7.9v-7h7.9v-10.8L-191.1,477.7z"/>
	<path class="st0" d="M-166.9,496.4h-6.3v-7.2h13.3l1,4.2c2.7-4,7.6-5.1,12.1-5.1c4.1,0,7.4,1.4,10.2,3.4l-3.7,7
		c-2.2-1.5-4.2-2.4-7.2-2.4c-7.6,0.1-11.3,3.7-11.3,11.4v15.1h6.3v7.2h-21.1v-7.2h6.6L-166.9,496.4L-166.9,496.4z"/>
	<path class="st0" d="M-118.3,489.1v33.5h6.1v7.3h-20.5v-7.3h6.3v-26.3h-6.2v-7.2C-132.6,489.1-118.3,489.1-118.3,489.1z
		 M-127.4,477.3c0-3.3,2.5-5,5.1-5s5.1,1.8,5.1,5.1c0,3.2-2.5,5-5.1,5C-124.9,482.5-127.4,480.6-127.4,477.3z"/>
	<path class="st0" d="M-92.9,522.6h6.4v7.3h-21.1v-7.3h6.6v-26.2h-6.4v-7.2h13.7l0.6,5.5c4-4.6,7.4-6.1,12.7-6.1
		c12.2,0,18,7.1,18,19.3v14.8h6.6v7.3h-20.3v-7.3h5.5v-14.8c0-8.2-2.5-11.8-10.5-11.8c-6.9,0-11.8,4.6-11.8,12.2v14.2l0,0V522.6z"/>
	<path class="st0" d="M-46,536.3c0.1,7.6,6.6,10.4,13.4,10.5c6.5,0,13.3-2.2,13.3-8.8c0-5.5-5.5-9.2-13-9.2
		c-13,0-21.7-7.6-21.7-20.3c0-13.5,11.1-20.4,21.7-20.4c3.4,0,8.2,0.8,11.1,2.7l6.2-1.9l1,3.9l-1.7,2.9c3.4,3.9,5,7.6,5,12.7
		c0,7.1-3.3,13.3-10.6,16c8.1,2.6,10.4,8.1,10.4,13.2c0,10.8-10.5,16.4-21.6,16.4c-13,0-21.5-6.9-21.3-18h7.9L-46,536.3L-46,536.3z
		 M-32.2,521.7c7.8,0,13.5-5.6,13.5-13c0-8.4-6.3-13-13.7-13c-6.8,0-13.7,4.2-13.7,12.8C-45.7,517-39.7,521.7-32.2,521.7z"/>
	<path class="st0" d="M20.7,496.4v-7.2h20.1v7.2h-5.1l-18.1,44.2c-4.1,9.8-12.5,10.2-20.7,6l3-6.8c3.7,1.6,7.8,3,9.8-1.6l3.2-8.7
		l-14.1-33.1h-5.5v-7.2h19.2v7.2H8l5.6,12.6l4.2,11.7l4-11.3l5-12.8h-6.2v-0.2H20.7z"/>
</g>
<path class="st0" d="M-211.7,512.9c0.1-0.7,0.2-1.4,0.3-1.9l2.5-5.1l-1.9-0.7c0-0.5,0-1,0-1.5c0-6-1-11.8-2.9-17.2l1.6-8l-6.3-7.1
	l-6.2-3.1l0,0c-4.9-5.4-10.9-9.7-17.6-12.8l-2.6-5.1l-5.5-0.2l-8.7-1.7l-10,2.9c-3.7,0.3-7.2,1.1-10.5,2.2l-2.7-1l-7.2,2.6
	l-13.7,8.6l-1.6,7.2c-4.2,5.4-7.4,11.4-9.4,18.1l0,0l-2,4.2l-2.9,2.8l2.9,8.4c0.1,3.9,0.6,7.7,1.4,11.3v-0.1l0.1,0.3
	c0.6,2.3,1.3,4.5,2.1,6.5l4.9,15.7l3.4,1.4v2.9l4.9-0.5c3,2.7,6.3,5.1,9.8,7.2c-6-4.5-9.7-11.1-9.8-20.9h13.8
	c0,12.1,13.2,15.2,23,15.2c12.1,0,22.7-6.1,22.7-17.6c0-10.6-9.3-16.2-22.4-16.2H-284l13.3-13.2h8.5c21.3,0,36.3,10,36.3,29.5
	c0,10.2-4.3,18.1-11.4,23.3c3.3-1.8,6.3-4.1,9.2-6.6l6.9-1.9l10.5-22.4L-211.7,512.9L-211.7,512.9z M-229.2,476.5H-284v18.3v0.5v1.1
	v13.3h-13.8v-46l0,0h68.7L-229.2,476.5L-229.2,476.5z"/>
</svg>
