<?xml version="1.0" encoding="utf-8"?>
<!-- Generator: Adobe Illustrator 17.1.0, SVG Export Plug-In . SVG Version: 6.00 Build 0)  -->
<!DOCTYPE svg PUBLIC "-//W3C//DTD SVG 1.1//EN" "http://www.w3.org/Graphics/SVG/1.1/DTD/svg11.dtd">
<svg version="1.1" id="Layer_1" xmlns="http://www.w3.org/2000/svg" xmlns:xlink="http://www.w3.org/1999/xlink" x="0px" y="0px"
	 viewBox="0 0 100 91.8" enable-background="new 0 0 100 91.8" xml:space="preserve">
<path fill="#FFFFFF" d="M97.6,58.7c0.1-0.6,0.2-1.2,0.3-1.8l2.2-4.7l-1.8-0.6c0-0.4,0-0.9,0-1.3c0-5.5-0.9-10.7-2.6-15.6l1.4-7.3
	l-5.6-6.4L86,18l0,0C81.5,13.1,76,9.2,69.9,6.4l-2.4-4.7l-5-0.2L54.7,0l-9.1,2.6c-3.3,0.3-6.5,1-9.6,2l-2.5-0.9l-6.6,2.4l-12.5,7.9
	l-1.4,6.6c-3.8,4.8-6.7,10.3-8.4,16.3l0,0l-1.9,4.1L0,43.4l2.6,7.5c0.1,3.5,0.5,7,1.3,10.3l0-0.1L4,61.5c0.5,2,1.1,4,1.9,6l4.5,14.3
	l3.1,1.3v2.6l4.5-0.4c2.7,2.5,5.7,4.7,8.9,6.6c-5.4-4-8.9-10.1-8.9-19.1h12.6c0,11,12,13.9,20.9,13.9c11,0,20.7-5.6,20.7-16.1
	c0-9.7-8.5-14.7-20.4-14.7H31.8l12.1-12.1h7.7c19.3,0,33,9.1,33,26.8c0,9.3-3.9,16.5-10.4,21.2c3-1.7,5.8-3.7,8.3-6l6.3-1.8
	l9.6-20.4L97.6,58.7L97.6,58.7z M81.7,25.6H31.8v16.7v0.4v1v12.1H19.2V14l0,0h62.4V25.6z"/>
</svg>
