<?xml version="1.0" encoding="utf-8"?>
<!-- Generator: Adobe Illustrator 19.1.0, SVG Export Plug-In . SVG Version: 6.00 Build 0)  -->
<!DOCTYPE svg PUBLIC "-//W3C//DTD SVG 1.1//EN" "http://www.w3.org/Graphics/SVG/1.1/DTD/svg11.dtd">
<svg version="1.1" id="Layer_1" xmlns="http://www.w3.org/2000/svg" xmlns:xlink="http://www.w3.org/1999/xlink" x="0px" y="0px"
	 viewBox="-273 144.5 367.5 112.5" style="enable-background:new -273 144.5 367.5 112.5;" xml:space="preserve">
<style type="text/css">
	.st0{fill:none;stroke:#FFFFFF;stroke-width:2;}
</style>
<g>
	<path class="st0" d="M-245.1,189.9c-6.7-1.7-7.7-3-7.7-4c0-2.4,12.1-11.1,22.9-11.7c-0.7,0.8-1.2,1.6-1.2,2.2
		c0,0.7,0.4,0.9,0.6,0.9c0.1,0,0.2-0.1,0.3-0.1c0.6-0.4,7.9-0.1,9.8-1.6c0.4-0.4,0.8-0.4,1.1-1.1c0.3-0.7,0.4-1.8,0.4-2.5
		c0-1.3-3.1-3-9-3c-11.1,0-31.3,8-31.3,17.7c0,4.4,3.8,7.1,11.1,8.8c6.9,1.6,12.4,3.1,12.4,5.1c0,2.8-10.1,8.3-19.5,8.3
		c-3.5,0-7.7-1.3-7.7-2.5c0-0.3,0.4-0.6,0.4-0.8c0-0.2-0.2-0.4-0.6-0.4c-0.4,0-3.5,1-3.5,4c0,2.6,2.4,5.8,9.7,5.8
		c17,0,27.5-7.9,27.5-14.1C-229.5,194.2-238.4,191.6-245.1,189.9z"/>
	<path class="st0" d="M-187.5,191.5c0-1.7-1.3-2.8-2.9-2.8c-4.7,0-9.6,5-12.5,8.3c0.9-1.5,4-5.7,4-7.2c0-0.5-0.1-1.2-0.7-1.2
		c-1.6,0-3.7,0.4-4.7,1.8c-1.1,1.4-1.8,2.9-2.7,4.4c-2.3,3.8-4.5,7.6-6.8,11.4c-2,1.8-4.7,4.1-6.5,4.1c-1,0-1.5-0.3-1.5-1.5
		c0-0.3,0.1-0.7,0.1-1.2c0.4-3.1,9.6-18.7,11.8-22.2c2.9-0.2,5.1-0.5,7.9-0.7c0.9-0.1,2.5-0.6,2.5-1.8c0-0.5-0.2-0.7-0.5-0.9
		c-0.7-0.5-0.9-1.3-1.6-1.6c-0.2-0.1-1-0.1-1.7-0.1s-2.7,0.2-3.1,0.2c0.5-0.8,3.1-4.8,3.1-5.3c0-0.3-0.3-0.8-0.7-0.8
		c-0.5,0-0.5-0.3-1.3-0.3c-0.5,0-1,0.2-1.5,0.2c-0.7,0-0.7,0.1-1.1,0.6c-1.6,1.7-2.9,3.8-4.2,5.7c-2.9,0.1,0.1,0-2.8,0.1
		c-1.3,0.1-2.7,0.1-4,0.2c-1,0.1-3.6,1.5-3.9,2.4c-0.2,0.6-1,1.1-1,1.5c0,1.2,1.7,1.5,2.6,1.5h0.3c0.7,0,5.3-0.6,5.4-0.6
		c-2.8,4.3-11.4,18.4-11.5,23.2c0,4,1.6,5.5,4.8,6c0.3,0.1,0.6,0.1,0.9,0.1c1.7,0,3.5-0.8,5.1-1.9c0.7,0.3,1.9,0.8,2.3,0.8
		c0.7,0,1.5-0.8,1.9-1.3c2-2.8,4.2-5.5,6.5-8c1.6-1.7,10-10.5,11.6-10.7l0.1,0.1c-1.1,1.3-2.3,3-2.3,4.8c0,1.2,0.7,2.4,2,2.4
		c0.8,0,1.3-0.4,1.8-1C-191.2,198.7-187.5,193.3-187.5,191.5z"/>
	<path class="st0" d="M-175.7,185.2c2.4,0,5-3,5-5.3c0-1.1-0.7-1.8-1.8-1.8c-2.5,0-5,2.8-5,5.3
		C-177.5,184.6-176.9,185.2-175.7,185.2z"/>
	<path class="st0" d="M-100.3,204.2c-0.2,0-0.5,0.1-0.7,0.3c-4.1,3.7-8.9,8.1-13.3,11.8c3.7-7.6,12.9-22.7,13.4-23.7
		c0.3-0.6,0.4-0.8,0.4-1.1c0-0.4-0.3-0.5-0.6-1c-0.4-0.5-2.1-0.7-2.4-0.7c-1.1,0-2.4,2.1-3.8,4.1c-4.5,6.8-14.1,15.4-15.7,15.4
		c-0.2,0-0.2-0.1-0.2-0.2c0-2,8.1-14.8,8.1-16.8c0-1.5-1.8-2.4-2.4-2.4c-1.2,0-2.3,3.7-5.2,8.2c-1.8,3.3-3.1,5.3-4,6.9
		c-5.5,2.9-10.2,7.1-12.2,8.9c5.6-9.8,10.4-17.3,14-22.4c0.1-0.2,0.7-0.6,0.7-1c0-0.1,0-0.1,0-0.2c-0.2-0.6-0.2-1.6-1.1-1.6
		c-1.6,0-3.3-0.1-4.7,1.5c-0.3-0.6-1.2-1.2-2.7-1.2c-6.2,0-19.4,8.3-21.9,18.1c-1.8,1.6-3.9,3.4-5.4,3.4c-0.9,0-1.9-0.4-1.9-1.4
		c0-2.1,3.5-7.3,4.5-8.9c1.2-1.9,5-6.9,5-8.8c0-1.7-1.3-2.8-2.9-2.8c-4.8,0-9.6,5-12.5,8.3c0.9-1.5,4-5.7,4-7.2
		c0-0.5-0.1-1.2-0.7-1.2c-1.6,0-3.7,0.4-4.7,1.8c-1.1,1.4-1.8,2.9-2.7,4.4c-2.2,3.7-4.4,7.4-6.6,11.2c-1.8,1.8-4.3,4.4-6.7,4.4
		c-0.8,0-1.6-0.2-1.6-1.1c0-1.5,1.6-3.7,2.3-5c0.9-1.6,7.4-12.7,7.4-13.4c0-1-1.3-2.5-2.3-2.5c-2.7,0-7.5,5.3-7.5,5.8
		c0,0.7,1.3,1.3,1.3,2c0,0.5-6.8,10.4-6.8,13.5c0,2.7,2.9,5.3,5.6,5.3c1.7,0,3.9-0.6,6-1.8c0.7,0.3,1.6,0.6,2,0.6
		c0.7,0,1.5-0.8,2-1.3c2-2.7,4.2-5.4,6.5-8c1.6-1.7,10-10.5,11.6-10.7l0.1,0.1c-0.1,0.6-1.3,2.5-1.6,2.9c-2.6,3.8-6,9.1-6,13
		c0,3,2.7,5,5.2,5c2.4,0,4.7-1.3,6.6-2.8c0.7,1.8,2.5,2.3,4.4,2.3c1.9,0,6.5-2.7,11.2-7.7c-5.7,9.1-5.7,8.9-6.2,9.8
		c-0.9,1.1-10.1,7.1-10.1,13.1c0,2.1,1.1,3.3,3.3,3.3c1.1,0,2.2-0.4,2.7-1.3c1.2-2,3.2-4.9,6.7-9.1c4-4.8,9.9-8.8,14-11.4
		c0,0.1,0,0.2,0,0.3c0,0.8,0.2,2.1,1.1,2.7c0.8,0.5,1.7,0.8,2.5,0.8h0.2c3.5-0.4,7.2-4.1,10.4-7.6c-2.8,5.3-4.1,7.9-4.7,8.7
		c-0.7,1-5.1,4.4-7.8,9.3c-0.7,1.4-1.3,3.1-1.3,4.5c0,1.6,0.7,2.9,2.9,2.9c0.3,0,0.6,0,0.9-0.1c3.4-0.4,6.7-7.9,7.3-8.6
		c6.1-6.5,10.9-10.9,17.5-15.9c0.2-0.2,0.3-0.6,0.3-1.1C-99.4,205.5-99.7,204.2-100.3,204.2z M-149.7,209.8c-0.2,0-0.3-0.2-0.3-0.5
		c0-2.6,5.6-14,18.3-16.8C-141.8,205.2-148.9,209.8-149.7,209.8z"/>
	<path class="st0" d="M-53.8,197.1c0-0.7-0.3-1.2-0.7-1.2c-0.2,0-0.2,0.1-0.3,0.2c-0.1,1.1-13.2,13.1-21,13.1c-3,0-4.2-1.9-4.2-4.3
		c0-6.5,5.6-15.2,11.9-21c5.9-5.4,13.7-9.4,17.5-9.4c0.7,0,1.1,0.3,1.1,0.8c0,2.5-7.8,9.7-10.3,9.7c-0.5,0-0.9-0.1-0.9-0.4
		c0-0.1,0-0.2,0.1-0.3c-0.8,0-1.1,1.9-1.1,2.3c0,1.1,1.5,2.9,3.7,2.9c4.1,0,14.8-9.3,14.8-15c0-3.3-4.1-4.9-6.3-4.9
		c-15.8,0-35.9,19.5-35.9,34.9c0,5.6,4.7,9.7,8.7,9.7c12.5,0,21.8-10.5,22.3-12.9C-54.1,199.5-53.8,198.1-53.8,197.1z"/>
	<path class="st0" d="M-29.9,188.7c-4.7,0-9.6,5-12.5,8.3c0.9-1.5,4-5.7,4-7.2c0-0.5-0.1-1.2-0.7-1.2c-1.6,0-3.7,0.4-4.7,1.8
		c-1.1,1.4-1.8,2.9-2.7,4.4c-2.7,4.6-5.5,9.1-8.1,13.8c-0.7,1.2-1.9,2.7-1.9,3.8c0,0.2,0,0.4,0.2,0.5c0.3,0.3,2.3,1.1,2.9,1.1
		c0.7,0,1.5-0.8,1.9-1.3c2-2.8,4.2-5.5,6.5-8c1.6-1.7,10-10.5,11.6-10.7l0.1,0.1c-1.1,1.3-2.3,3-2.3,4.8c0,1.2,0.7,2.4,2,2.4
		c0.8,0,1.3-0.4,1.8-1c1.2-1.6,4.9-7,4.9-8.8C-26.9,189.8-28.2,188.7-29.9,188.7z"/>
	<path class="st0" d="M45.2,185.2c2.4,0,5-3,5-5.3c0-1.1-0.7-1.8-1.8-1.8c-2.5,0-5,2.8-5,5.3C43.3,184.6,44,185.2,45.2,185.2z"/>
	<path class="st0" d="M66.5,186.6c-2,0-3.3,1.5-3.3,2.5c0,1,0.7,1.1,0.7,2.2c0,1.6-2.6,5.8-5.7,9.8c-2.6,3.2-8.8,8.9-9.9,8.9
		c-0.1,0-0.2-0.1-0.2-0.2c0-2.6,8.4-16.4,8.4-18.7c0-1-1-2-2.5-2c-2.8,0-8.1,6.2-8.6,6.8c-0.1,0.1-0.2,0.3-0.2,0.5
		c0,0.9,1,2.2,1.4,2.2c0.4,0,1.2-0.6,2-1.2c-1,1.6-2.5,4.5-3.8,7.4c-0.1-0.3-0.3-0.6-0.6-0.6c-1,0-5,6.3-8.8,6.3
		c-0.8,0-1.6-0.2-1.6-1.1c0-1.5,1.6-3.7,2.3-5c0.9-1.6,7.4-12.7,7.4-13.4c0-1-1.3-2.5-2.3-2.5c-2.7,0-7.5,5.3-7.5,5.8
		c0,0.7,1.3,1.3,1.3,2c0,0.3-2.8,4.5-4.8,8.3c-1.8,1.5-5.9,5.7-8.4,5.7c-1,0-1.5-0.3-1.5-1.5c0-0.3,0.1-0.7,0.1-1.2
		c0.4-3.1,9.6-18.7,11.8-22.2c2.9-0.2,5.1-0.5,7.9-0.7c0.9-0.1,2.5-0.6,2.5-1.8c0-0.5-0.2-0.7-0.5-0.9c-0.7-0.5-0.9-1.3-1.6-1.6
		c-0.2-0.1-1-0.1-1.7-0.1s-2.7,0.2-3.1,0.2c0.5-0.8,3.1-4.8,3.1-5.3c0-0.3-0.3-0.8-0.7-0.8c-0.5,0-0.5-0.3-1.3-0.3
		c-0.5,0-1,0.2-1.5,0.2c-0.7,0-0.7,0.1-1.1,0.6c-1.6,1.7-2.9,3.8-4.2,5.7c-2.9,0.1,0.1,0-2.8,0.1c-1.3,0.1-2.7,0.1-4,0.2
		c-1,0.1-3.6,1.5-3.9,2.4c-0.2,0.6-1,1.1-1,1.5c0,1.2,1.7,1.5,2.6,1.5h0.3c0.7,0,5.3-0.6,5.4-0.6c-2.3,3.5-8.4,13.4-10.6,19.6
		c-1.5,1.7-4.6,5-6.5,5c-0.8,0-1-0.9-1-1.7c0-0.3,0-0.7,0.1-0.9c1-5.6,6.2-14.1,6.7-14.5c0.3-0.3,0.4-0.8,0.4-1.3
		c0-1.1-1.1-1.6-2.4-1.6c-1.3,0-1.8,0.1-2.8,1.7c-0.3-1-1.7-2-4.1-2c-5.8,0-15,7-17.8,14.7c-2.8,2.2-7,6.1-11.3,6.1
		c-1.6,0-4.1-0.2-4.1-2.4c0-1.4,5.3-4.3,6.5-5c1-0.5,2-0.6,2.9-1.3c0.4-0.3,1.1-0.9,1.1-1.4c0-0.5-0.8-1.8-1.3-2
		c-0.2-0.1-0.4-0.1-0.6-0.1c-1.6,0-3,1-4.7,1c-0.1,0-0.6,0-0.6-0.2c0-1.1,4.2-3.9,5.3-4.5c0.8-0.5,1.6-0.9,2.5-1.2
		c-0.1,0.2-0.1,0.5-0.1,0.8c0,0.9,0.1,1.4,1.1,1.4c2.8,0,5.4-2.4,5.4-5.1c0-1.3-2-1.9-3.1-1.9c-5.3,0-15.6,4.4-15.6,10.5
		c0,1.6,0.2,2.9,1.9,3.6c-2.9,1.1-5.9,3-5.9,6.5c0,4.6,4.8,5.7,8.5,5.7c4.4,0,8.5-2.3,11.4-4.5c0,0,0,0,0,0c0.3,2.2,2.2,4.2,4.8,4.2
		c3.1,0,8.1-3.6,11.5-8c-0.4,0.9-0.6,1.9-0.6,2.9c0,2.6,1.4,5.2,4.6,5.2c2.4,0,5.1-1.8,7-3.5c0.6,2.2,2.1,3.1,4.5,3.5
		c0.3,0.1,0.6,0.1,0.9,0.1c2.6,0,5.5-2,7.6-3.8c0.8,2.1,3.1,3.9,5.4,3.9c2.6,0,6.4-1.5,9-4.2c0,0.1,0,0.2,0,0.4
		c0,2.5,1.9,3.6,3.4,3.6c3.3,0,9.6-4.9,14.7-10.6c4.7-5.3,8.3-11.5,8.3-14.4C69.4,187.5,68.2,186.6,66.5,186.6z M4.3,200.8
		c-2.4,2.9-9.4,9.1-10.6,9.1c-0.4,0-0.6-0.3-0.6-0.8c0-1.9,2.7-6.6,5.4-9.4c4.8-5,8.9-5.9,11-5.9C7.8,196,5.7,199,4.3,200.8z"/>
	<path class="st0" d="M86.3,204.2c-0.2,0-0.5,0.2-0.7,0.3c-2.9,2.1-7.2,6.4-11.7,6.4c-1.6,0-4.1-0.2-4.1-2.4c0-1.4,5.3-4.3,6.5-5
		c1-0.5,2-0.6,2.9-1.3c0.4-0.3,1.1-0.9,1.1-1.4c0-0.5-0.8-1.8-1.3-2c-0.2-0.1-0.4-0.1-0.6-0.1c-1.6,0-3,1-4.7,1
		c-0.1,0-0.6,0-0.6-0.2c0-1.1,4.2-3.9,5.3-4.5c0.8-0.5,1.6-0.9,2.5-1.2c-0.1,0.2-0.1,0.5-0.1,0.8c0,0.9,0.1,1.4,1.1,1.4
		c2.8,0,5.4-2.4,5.4-5.1c0-1.3-2-1.9-3.1-1.9c-5.3,0-15.6,4.4-15.6,10.5c0,1.6,0.2,2.9,1.9,3.6c-2.9,1.1-5.9,3-5.9,6.5
		c0,4.6,4.8,5.7,8.5,5.7c5,0,9.6-3,12.6-5.4c0.5-0.4,1.1-1,1.3-1.5c0.2-0.5,0.2-1.1,0.2-1.7C87.1,206.1,87.1,204.2,86.3,204.2z"/>
</g>
</svg>
