<?xml version="1.0" encoding="utf-8"?>
<!-- Generator: Adobe Illustrator 19.1.0, SVG Export Plug-In . SVG Version: 6.00 Build 0)  -->
<!DOCTYPE svg PUBLIC "-//W3C//DTD SVG 1.1//EN" "http://www.w3.org/Graphics/SVG/1.1/DTD/svg11.dtd">
<svg version="1.1" id="Layer_1" xmlns="http://www.w3.org/2000/svg" xmlns:xlink="http://www.w3.org/1999/xlink" x="0px" y="0px"
	 viewBox="0 0 320 320" style="enable-background:new 0 0 320 320;" xml:space="preserve">
<style type="text/css">
	.st0{fill:none;stroke:#FFFFFF;stroke-width:5;stroke-miterlimit:10;}
</style>
<g>
	<path class="st0" d="M294.9,253.2c7,0,12.2-3.1,15.6-9.1c1.5-2.7,2.5-5.7,2.5-9V57.2v-1.5c-1-8.5-8.1-15.6-16.6-16.2l-1.5-0.1
		L25,39.5l-1.5,0.1C14.6,40.2,8,47.2,7,55.7v1.5v177.9c0,3.4,0.9,6.4,2.4,9c3.4,6.1,8.5,9.1,15.6,9.1H294.9z M296.4,57.2v177.9
		c0,1.1-0.4,1.5-1.5,1.5H25c-1,0-1.5-0.4-1.5-1.5V57.2v-1.5h272.9L296.4,57.2L296.4,57.2z"/>
</g>
<path class="st0" d="M123.5,253.2V278H54.6c-4.6,0-8.2,3.6-8.2,8.2c0,4.6,3.6,8.2,8.2,8.2H266c4.6,0,8.4-3.6,8.4-8.2
	c0-4.6-3.7-8.2-8.4-8.2h-69.6v-24.8"/>
<line class="st0" x1="43" y1="219.5" x2="268.5" y2="71"/>
<line class="st0" x1="128.4" y1="194.9" x2="270.2" y2="101.5"/>
<line class="st0" x1="43.4" y1="112.5" x2="106.5" y2="71"/>
</svg>
