<?xml version="1.0" encoding="utf-8"?>
<!-- Generator: Adobe Illustrator 19.1.0, SVG Export Plug-In . SVG Version: 6.00 Build 0)  -->
<!DOCTYPE svg PUBLIC "-//W3C//DTD SVG 1.1//EN" "http://www.w3.org/Graphics/SVG/1.1/DTD/svg11.dtd">
<svg version="1.1" id="Layer_1" xmlns="http://www.w3.org/2000/svg" xmlns:xlink="http://www.w3.org/1999/xlink" x="0px" y="0px"
	 viewBox="0 0 200 200" style="enable-background:new 0 0 200 200;" xml:space="preserve">
<style type="text/css">
	.st0{fill:none;stroke:#FFFFFF;stroke-width:5;}
</style>
<g>
	<path class="st0" d="M172.3,17.8v90.6c0,6.8-1.3,13.5-3.9,20.1c-2.6,6.7-5.9,12.5-9.8,17.7c-3.9,5.2-8.5,10.2-13.9,15
		c-5.4,4.9-10.4,8.9-14.9,12.1c-4.6,3.2-9.3,6.3-14.3,9.1s-8.5,4.8-10.6,5.8c-2.1,1-3.8,1.8-5,2.4c-0.9,0.5-2,0.7-3.1,0.7
		c-1.1,0-2.1-0.2-3.1-0.7c-1.3-0.6-2.9-1.3-5-2.4c-2.1-1-5.6-3-10.6-5.8c-5-2.9-9.7-5.9-14.3-9.1c-4.6-3.2-9.5-7.3-14.9-12.1
		c-5.4-4.9-10-9.9-13.9-15c-3.9-5.2-7.2-11-9.8-17.7c-2.6-6.7-3.9-13.4-3.9-20.1V17.8c0-2,0.7-3.8,2.2-5.3c1.5-1.5,3.3-2.2,5.3-2.2
		h135.9c2,0,3.8,0.7,5.3,2.2C171.6,14,172.3,15.8,172.3,17.8z M149.7,108.4V32.9H96.8v134.2c9.4-5,17.7-10.4,25.1-16.2
		C140.4,136.4,149.7,122.3,149.7,108.4z"/>
</g>
</svg>
