<?xml version="1.0" encoding="utf-8"?>
<!-- Generator: Adobe Illustrator 19.1.0, SVG Export Plug-In . SVG Version: 6.00 Build 0)  -->
<!DOCTYPE svg PUBLIC "-//W3C//DTD SVG 1.1//EN" "http://www.w3.org/Graphics/SVG/1.1/DTD/svg11.dtd">
<svg version="1.1" id="Layer_1" xmlns="http://www.w3.org/2000/svg" xmlns:xlink="http://www.w3.org/1999/xlink" x="0px" y="0px"
	 viewBox="-49 51 100 100" style="enable-background:new -49 51 100 100;" xml:space="preserve">
<style type="text/css">
	.st0{fill:none;stroke:#FFFFFF;stroke-miterlimit:10;}
</style>
<g>
	<path class="st0" d="M1,52c-27,0-49,21.9-49,49s22,49,49,49s49-22,49-49S28.1,52,1,52L1,52z"/>
	<g>
		<g>
			<polygon class="st0" points="0.3,103.3 -4.6,94.7 -1.5,92.9 0.3,96.2 2.2,92.9 5.3,94.7 			"/>
		</g>
		<polygon class="st0" points="8.9,107.9 7.2,104.6 7.9,103.2 4.9,101.5 2.3,105.8 -1.7,105.8 -4.2,101.5 -7.3,103.2 -6.5,104.5 
			-8.3,107.9 -4.6,107.8 -3.7,109.4 4.4,109.4 5.3,107.8 		"/>
	</g>
	<g>
		<path class="st0" d="M0.4,123.1c-13.4,0-28.1-3.6-29.1-13.8v-0.4V93.8c0-7,6.5-10.5,10.4-12c4.9-1.9,11.6-2.9,18.7-2.9
			s13.8,1,18.7,2.9c3.9,1.5,10.4,5,10.4,12v14.4c0,7-6.5,10.5-10.4,12C14.2,122,7.6,123.1,0.4,123.1z M-21,108.6
			c0.7,4.2,11.5,6.8,21.4,6.8c11.8,0,21.4-3.2,21.4-7.2V93.8c0-4-9.6-7.2-21.4-7.2S-21,89.8-21,93.8v0.7V108.6z"/>
	</g>
</g>
</svg>
