<?xml version="1.0" encoding="utf-8"?>
<!-- Generator: Adobe Illustrator 19.1.0, SVG Export Plug-In . SVG Version: 6.00 Build 0)  -->
<!DOCTYPE svg PUBLIC "-//W3C//DTD SVG 1.1//EN" "http://www.w3.org/Graphics/SVG/1.1/DTD/svg11.dtd">
<svg version="1.1" id="Layer_1" xmlns="http://www.w3.org/2000/svg" xmlns:xlink="http://www.w3.org/1999/xlink" x="0px" y="0px"
	 viewBox="-49 51 100 100" style="enable-background:new -49 51 100 100;" xml:space="preserve">
<style type="text/css">
	.st0{fill:none;stroke:#FFFFFF;stroke-miterlimit:10;}
</style>
<g>
	<path class="st0" d="M1,52c-27,0-49,21.9-49,49s21.9,49,49,49s49-21.9,49-49S28,52,1,52L1,52z"/>
	<g>
		<polygon class="st0" points="12.3,85.9 5.7,82.1 1.6,89.1 -2.5,82.1 -9.1,85.9 1.6,104.5 		"/>
		<polygon class="st0" points="20.1,114.5 16.3,107.2 18,104.4 11.3,100.5 5.9,109.9 -2.7,109.9 -8.2,100.5 -14.8,104.4 -13.3,107 
			-17.2,114.5 -9.2,114.1 -7.2,117.6 10.3,117.6 12.3,114.2 		"/>
	</g>
</g>
</svg>
