<?xml version="1.0" encoding="utf-8"?>
<!-- Generator: Adobe Illustrator 18.0.0, SVG Export Plug-In . SVG Version: 6.00 Build 0)  -->
<!DOCTYPE svg PUBLIC "-//W3C//DTD SVG 1.1//EN" "http://www.w3.org/Graphics/SVG/1.1/DTD/svg11.dtd">
<svg version="1.1" id="Layer_1" xmlns="http://www.w3.org/2000/svg" xmlns:xlink="http://www.w3.org/1999/xlink" x="0px" y="0px"
	 viewBox="0 0 100 100" enable-background="new 0 0 100 100" xml:space="preserve">
<path fill="#FFFFFF" d="M49.9,8.6c11,0,21.4,4.3,29.2,12.1s12.1,18.2,12.1,29.2s-4.3,21.4-12.1,29.2S61,91.2,49.9,91.2
	s-21.4-4.3-29.2-12.1C13,71.3,8.7,60.9,8.7,49.9S13,28.5,20.8,20.7C28.6,12.9,38.9,8.6,49.9,8.6 M49.9,1C22.9,1,1,22.9,1,49.9
	s21.9,48.9,48.9,48.9s48.9-21.9,48.9-48.9S77,1,49.9,1L49.9,1z"/>
<path fill="#FFFFFF" d="M70.1,49.9c0-0.9-0.1-1.8-0.2-2.7c1.4-0.3,2.7-0.5,3.9-0.8c-0.6-4-2.2-7.7-4.5-10.8
	c-1.1,0.7-2.2,1.4-3.3,2.1c-1.1-1.4-2.4-2.7-3.8-3.8c0.8-1.1,1.5-2.3,2.1-3.3c-3.1-2.3-6.8-3.9-10.8-4.5c-0.3,1.2-0.6,2.5-0.8,3.9
	c-0.9-0.1-1.8-0.2-2.7-0.2c-0.9,0-1.8,0.1-2.7,0.2c-0.3-1.4-0.5-2.7-0.8-3.9c-4,0.6-7.6,2.1-10.7,4.4c0.7,1.1,1.4,2.2,2.2,3.3
	c-1.5,1.1-2.8,2.4-3.9,3.9c-1.1-0.8-2.3-1.5-3.3-2.2c-2.3,3.1-3.8,6.7-4.4,10.7c1.2,0.3,2.5,0.6,3.9,0.8c-0.1,0.9-0.2,1.8-0.2,2.8
	c0,0.9,0.1,1.9,0.2,2.8c-1.4,0.3-2.7,0.5-3.9,0.8c0.6,4,2.2,7.6,4.4,10.7c1.1-0.7,2.2-1.4,3.3-2.2c1.1,1.5,2.4,2.8,3.9,3.9
	c-0.8,1.1-1.5,2.3-2.2,3.3c3.1,2.3,6.7,3.8,10.7,4.4c0.3-1.2,0.6-2.5,0.8-3.9C48.1,70,49,70,49.9,70c0.9,0,1.9-0.1,2.8-0.2
	c0.3,1.4,0.5,2.7,0.8,3.9c4-0.6,7.6-2.2,10.7-4.5c-0.7-1.1-1.4-2.2-2.1-3.3c1.4-1.1,2.7-2.4,3.8-3.8c1.1,0.8,2.3,1.5,3.3,2.1
	c2.3-3.1,3.9-6.8,4.5-10.8c-1.2-0.3-2.5-0.6-3.9-0.8C70,51.7,70.1,50.8,70.1,49.9z M49.9,62.4c-6.9,0-12.5-5.6-12.5-12.5
	c0-6.9,5.6-12.5,12.5-12.5c6.9,0,12.5,5.6,12.5,12.5C62.4,56.8,56.8,62.4,49.9,62.4z"/>
</svg>
