<?xml version="1.0" encoding="utf-8"?>
<!-- Generator: Adobe Illustrator 19.1.0, SVG Export Plug-In . SVG Version: 6.00 Build 0)  -->
<!DOCTYPE svg PUBLIC "-//W3C//DTD SVG 1.1//EN" "http://www.w3.org/Graphics/SVG/1.1/DTD/svg11.dtd">
<svg version="1.1" id="Layer_1" xmlns="http://www.w3.org/2000/svg" xmlns:xlink="http://www.w3.org/1999/xlink" x="0px" y="0px"
	 viewBox="-109 111 100 100" style="enable-background:new -109 111 100 100;" xml:space="preserve">
<style type="text/css">
	.st0{fill:none;stroke:#FFFFFF;stroke-width:2;stroke-miterlimit:10;}
</style>
<g>
	<path class="st0" d="M-59,112.1c-27,0-48.9,21.9-48.9,48.9S-86,209.9-59,209.9S-10.1,188-10.1,161S-32,112.1-59,112.1L-59,112.1z"
		/>
	<path class="st0" d="M-54.2,141.3c-9,0-16.2,7.3-16.2,16.2c0,2.6,0.6,5.1,1.8,7.3l-14.3,14.3l5.4,5.4l13.8-13.8
		c2.7,1.9,5.9,3.1,9.5,3.1c9,0,16.2-7.3,16.2-16.2S-45.3,141.3-54.2,141.3z M-54.2,166.1c-4.7,0-8.6-3.8-8.6-8.6
		c0-4.8,3.8-8.6,8.6-8.6c4.7,0,8.6,3.8,8.6,8.6C-45.6,162.3-49.5,166.1-54.2,166.1z"/>
</g>
</svg>
