<?xml version="1.0" encoding="utf-8"?>
<!-- Generator: Adobe Illustrator 18.0.0, SVG Export Plug-In . SVG Version: 6.00 Build 0)  -->
<!DOCTYPE svg PUBLIC "-//W3C//DTD SVG 1.1//EN" "http://www.w3.org/Graphics/SVG/1.1/DTD/svg11.dtd">
<svg version="1.1" id="Layer_1" xmlns="http://www.w3.org/2000/svg" xmlns:xlink="http://www.w3.org/1999/xlink" x="0px" y="0px"
	 viewBox="0 0 100 100" enable-background="new 0 0 100 100" xml:space="preserve">
<g>
	<path fill="#FFFFFF" d="M50,8.7c11,0,21.4,4.3,29.2,12.1C87,28.6,91.3,38.9,91.3,50S87,71.4,79.2,79.2C71.4,87,61,91.3,50,91.3
		S28.6,87,20.8,79.2C13,71.4,8.7,61,8.7,50S13,28.6,20.8,20.8C28.6,13,39,8.7,50,8.7 M50,1C22.9,1,1,22.9,1,50s21.9,49,49,49
		S99,77,99,50S77.1,1,50,1L50,1z"/>
	<path fill="#FFFFFF" d="M77.2,50.2c-0.1-14.9-12.2-27-27.1-27c-7.6,0-14.5,3.1-19.4,8.2l5.4,5.4c3.5-3.7,8.5-5.9,14-5.9
		c10.7,0,19.4,8.6,19.5,19.3h-8.1L73,61.8l11.6-11.6H77.2z"/>
	<g>
		<path fill="#FFFFFF" d="M64.2,63.7c-3.5,3.8-8.6,6.1-14.1,6.1c-10.7,0-19.5-8.7-19.5-19.5h8.1L27.1,38.7L15.5,50.3h7.4
			c0,15,12.2,27.1,27.1,27.1c7.7,0,14.6-3.2,19.6-8.4L64.2,63.7z"/>
	</g>
</g>
</svg>
