<?xml version="1.0" encoding="utf-8"?>
<!-- Generator: Adobe Illustrator 19.1.0, SVG Export Plug-In . SVG Version: 6.00 Build 0)  -->
<!DOCTYPE svg PUBLIC "-//W3C//DTD SVG 1.1//EN" "http://www.w3.org/Graphics/SVG/1.1/DTD/svg11.dtd">
<svg version="1.1" id="Layer_1" xmlns="http://www.w3.org/2000/svg" xmlns:xlink="http://www.w3.org/1999/xlink" x="0px" y="0px"
	 viewBox="-109 111 100 100" style="enable-background:new -109 111 100 100;" xml:space="preserve">
<style type="text/css">
	.st0{fill:none;stroke:#FFFFFF;stroke-width:2;stroke-miterlimit:10;}
</style>
<g>
	<path class="st0" d="M-59,112c-27,0-49,21.9-49,49s21.9,49,49,49s49-21.9,49-49S-32,112-59,112L-59,112z"/>
	<g>
		<polygon class="st0" points="-47.7,145.9 -54.3,142.1 -58.4,149.1 -62.5,142.1 -69.1,145.9 -58.4,164.5 		"/>
		<polygon class="st0" points="-39.9,174.5 -43.7,167.2 -42,164.4 -48.7,160.5 -54.1,169.9 -62.7,169.9 -68.2,160.5 -74.8,164.4 
			-73.3,167 -77.2,174.5 -69.2,174.1 -67.2,177.6 -49.7,177.6 -47.7,174.2 		"/>
	</g>
</g>
</svg>
