<?xml version="1.0" encoding="utf-8"?>
<!-- Generator: Adobe Illustrator 19.1.0, SVG Export Plug-In . SVG Version: 6.00 Build 0)  -->
<!DOCTYPE svg PUBLIC "-//W3C//DTD SVG 1.1//EN" "http://www.w3.org/Graphics/SVG/1.1/DTD/svg11.dtd">
<svg version="1.1" id="Layer_1" xmlns="http://www.w3.org/2000/svg" xmlns:xlink="http://www.w3.org/1999/xlink" x="0px" y="0px"
	 viewBox="-109 111 100 100" style="enable-background:new -109 111 100 100;" xml:space="preserve">
<style type="text/css">
	.st0{fill:none;stroke:#FFFFFF;stroke-width:2;stroke-miterlimit:10;}
</style>
<g>
	<path class="st0" d="M-59,112c-27,0-49,21.9-49,49s22,49,49,49s49-22,49-49S-31.9,112-59,112L-59,112z"/>
	<g>
		<g>
			<polygon class="st0" points="-59.7,163.3 -64.6,154.7 -61.5,152.9 -59.7,156.2 -57.8,152.9 -54.7,154.7 			"/>
		</g>
		<polygon class="st0" points="-51.1,167.9 -52.8,164.6 -52.1,163.2 -55.1,161.5 -57.7,165.8 -61.7,165.8 -64.2,161.5 -67.3,163.2 
			-66.5,164.5 -68.3,167.9 -64.6,167.8 -63.7,169.4 -55.6,169.4 -54.7,167.8 		"/>
	</g>
	<g>
		<path class="st0" d="M-59.6,183.1c-13.4,0-28.1-3.6-29.1-13.8v-0.4v-15.1c0-7,6.5-10.5,10.4-12c4.9-1.9,11.6-2.9,18.7-2.9
			s13.8,1,18.7,2.9c3.9,1.5,10.4,5,10.4,12v14.4c0,7-6.5,10.5-10.4,12C-45.8,182-52.4,183.1-59.6,183.1z M-81,168.6
			c0.7,4.2,11.5,6.8,21.4,6.8c11.8,0,21.4-3.2,21.4-7.2v-14.4c0-4-9.6-7.2-21.4-7.2s-21.4,3.2-21.4,7.2v0.7V168.6z"/>
	</g>
</g>
</svg>
