<?xml version="1.0" encoding="utf-8"?>
<!-- Generator: Adobe Illustrator 19.1.0, SVG Export Plug-In . SVG Version: 6.00 Build 0)  -->
<!DOCTYPE svg PUBLIC "-//W3C//DTD SVG 1.1//EN" "http://www.w3.org/Graphics/SVG/1.1/DTD/svg11.dtd">
<svg version="1.1" id="Layer_1" xmlns="http://www.w3.org/2000/svg" xmlns:xlink="http://www.w3.org/1999/xlink" x="0px" y="0px"
	 viewBox="-49 51 100 100" style="enable-background:new -49 51 100 100;" xml:space="preserve">
<style type="text/css">
	.st0{fill:none;stroke:#FFFFFF;stroke-miterlimit:10;}
</style>
<g>
	<path class="st0" d="M1,52c-27.1,0-49,21.9-49,49s21.9,49,49,49s49-22,49-49S28.1,52,1,52L1,52z"/>
	<path class="st0" d="M28.2,101.2c-0.1-14.9-12.2-27-27.1-27c-7.6,0-14.5,3.1-19.4,8.2l5.4,5.4c3.5-3.7,8.5-5.9,14-5.9
		c10.7,0,19.4,8.6,19.5,19.3h-8.1L24,112.8l11.6-11.6C35.6,101.2,28.2,101.2,28.2,101.2z"/>
	<g>
		<path class="st0" d="M15.2,114.7c-3.5,3.8-8.6,6.1-14.1,6.1c-10.7,0-19.5-8.7-19.5-19.5h8.1l-11.6-11.6l-11.6,11.6h7.4
			c0,15,12.2,27.1,27.1,27.1c7.7,0,14.6-3.2,19.6-8.4L15.2,114.7z"/>
	</g>
</g>
</svg>
