<?xml version="1.0" encoding="utf-8"?>
<!-- Generator: Adobe Illustrator 19.1.0, SVG Export Plug-In . SVG Version: 6.00 Build 0)  -->
<!DOCTYPE svg PUBLIC "-//W3C//DTD SVG 1.1//EN" "http://www.w3.org/Graphics/SVG/1.1/DTD/svg11.dtd">
<svg version="1.1" id="Layer_1" xmlns="http://www.w3.org/2000/svg" xmlns:xlink="http://www.w3.org/1999/xlink" x="0px" y="0px"
	 viewBox="-49 51 100 100" style="enable-background:new -49 51 100 100;" xml:space="preserve">
<style type="text/css">
	.st0{fill:none;stroke:#FFFFFF;stroke-miterlimit:10;}
</style>
<g>
	<path class="st0" d="M1,52.1c-27,0-48.9,21.9-48.9,48.9S-26,149.9,1,149.9S49.9,128,49.9,101S28,52.1,1,52.1L1,52.1z"/>
	<path class="st0" d="M5.8,81.3c-9,0-16.2,7.3-16.2,16.2c0,2.6,0.6,5.1,1.8,7.3l-14.3,14.3l5.4,5.4l13.8-13.8
		c2.7,1.9,5.9,3.1,9.5,3.1c9,0,16.2-7.3,16.2-16.2S14.7,81.3,5.8,81.3z M5.8,106.1c-4.7,0-8.6-3.8-8.6-8.6s3.8-8.6,8.6-8.6
		c4.7,0,8.6,3.8,8.6,8.6S10.5,106.1,5.8,106.1z"/>
</g>
</svg>
