<?xml version="1.0" encoding="utf-8"?>
<!-- Generator: Adobe Illustrator 18.0.0, SVG Export Plug-In . SVG Version: 6.00 Build 0)  -->
<!DOCTYPE svg PUBLIC "-//W3C//DTD SVG 1.1//EN" "http://www.w3.org/Graphics/SVG/1.1/DTD/svg11.dtd">
<svg version="1.1" id="Layer_1" xmlns="http://www.w3.org/2000/svg" xmlns:xlink="http://www.w3.org/1999/xlink" x="0px" y="0px"
	 viewBox="0 0 100 100" enable-background="new 0 0 100 100" xml:space="preserve">
<g>
	<path fill="#FFFFFF" d="M50,0.9c-27.1,0-49,21.9-49,49s21.9,49,49,49s49-21.9,49-49S77.1,0.9,50,0.9z M79.2,79.1
		C71.4,86.9,61,91.2,50,91.2s-21.4-4.3-29.2-12.1C13,71.3,8.7,61,8.7,49.9S13,28.5,20.8,20.7C28.6,12.9,39,8.6,50,8.6
		s21.4,4.3,29.2,12.1c7.8,7.8,12.1,18.2,12.1,29.2S87,71.3,79.2,79.1z"/>
	<rect x="28.5" y="31.3" fill="#FFFFFF" width="7.9" height="7.7"/>
	<rect x="41.4" y="31.3" fill="#FFFFFF" width="30.7" height="7.7"/>
	<rect x="28.5" y="45" fill="#FFFFFF" width="7.9" height="7.7"/>
	<rect x="41.4" y="45" fill="#FFFFFF" width="30.7" height="7.7"/>
	<rect x="28.5" y="58.6" fill="#FFFFFF" width="7.9" height="7.7"/>
	<rect x="41.4" y="58.6" fill="#FFFFFF" width="30.7" height="7.7"/>
</g>
</svg>
