<?xml version="1.0" encoding="utf-8"?>
<!-- Generator: Adobe Illustrator 19.1.0, SVG Export Plug-In . SVG Version: 6.00 Build 0)  -->
<!DOCTYPE svg PUBLIC "-//W3C//DTD SVG 1.1//EN" "http://www.w3.org/Graphics/SVG/1.1/DTD/svg11.dtd">
<svg version="1.1" id="Layer_1" xmlns="http://www.w3.org/2000/svg" xmlns:xlink="http://www.w3.org/1999/xlink" x="0px" y="0px"
	 viewBox="-49 51 100 100" style="enable-background:new -49 51 100 100;" xml:space="preserve">
<style type="text/css">
	.st0{fill:none;stroke:#FFFFFF;stroke-miterlimit:10;}
</style>
<path class="st0" d="M1,52.1c-27,0-48.9,21.9-48.9,48.9S-26,149.9,1,149.9S49.9,128,49.9,101S28.1,52.1,1,52.1L1,52.1z"/>
<path class="st0" d="M21,101c0-0.9-0.1-1.8-0.2-2.7c1.4-0.3,2.7-0.5,3.9-0.8c-0.6-4-2.2-7.7-4.5-10.8c-1.1,0.7-2.2,1.4-3.3,2.1
	c-1.1-1.4-2.4-2.7-3.8-3.8c0.8-1.1,1.5-2.3,2.1-3.3c-3.1-2.3-6.8-3.9-10.8-4.5c-0.3,1.2-0.6,2.5-0.8,3.9c-0.9-0.1-1.8-0.2-2.7-0.2
	s-1.8,0.1-2.7,0.2c-0.3-1.4-0.5-2.7-0.8-3.9c-4,0.6-7.6,2.1-10.7,4.4c0.7,1.1,1.4,2.2,2.2,3.3c-1.5,1.1-2.8,2.4-3.9,3.9
	c-1.1-0.8-2.3-1.5-3.3-2.2c-2.3,3.1-3.8,6.7-4.4,10.7c1.2,0.3,2.5,0.6,3.9,0.8c-0.1,0.9-0.2,1.8-0.2,2.8c0,0.9,0.1,1.9,0.2,2.8
	c-1.4,0.3-2.7,0.5-3.9,0.8c0.6,4,2.2,7.6,4.4,10.7c1.1-0.7,2.2-1.4,3.3-2.2c1.1,1.5,2.4,2.8,3.9,3.9c-0.8,1.1-1.5,2.3-2.2,3.3
	c3.1,2.3,6.7,3.8,10.7,4.4c0.3-1.2,0.6-2.5,0.8-3.9c0.8,0.4,1.7,0.4,2.6,0.4s1.9-0.1,2.8-0.2c0.3,1.4,0.5,2.7,0.8,3.9
	c4-0.6,7.6-2.2,10.7-4.5c-0.7-1.1-1.4-2.2-2.1-3.3c1.4-1.1,2.7-2.4,3.8-3.8c1.1,0.8,2.3,1.5,3.3,2.1c2.3-3.1,3.9-6.8,4.5-10.8
	c-1.2-0.3-2.5-0.6-3.9-0.8C20.9,102.8,21,101.9,21,101z M0.8,113.5c-6.9,0-12.5-5.6-12.5-12.5c0-6.9,5.6-12.5,12.5-12.5
	s12.5,5.6,12.5,12.5C13.3,107.9,7.7,113.5,0.8,113.5z"/>
</svg>
