<?xml version="1.0" encoding="utf-8"?>
<!-- Generator: Adobe Illustrator 19.1.0, SVG Export Plug-In . SVG Version: 6.00 Build 0)  -->
<!DOCTYPE svg PUBLIC "-//W3C//DTD SVG 1.1//EN" "http://www.w3.org/Graphics/SVG/1.1/DTD/svg11.dtd">
<svg version="1.1" id="Layer_1" xmlns="http://www.w3.org/2000/svg" xmlns:xlink="http://www.w3.org/1999/xlink" x="0px" y="0px"
	 viewBox="0 0 320 320" style="enable-background:new 0 0 320 320;" xml:space="preserve">
<style type="text/css">
	.st0{fill:none;stroke:#FFFFFF;stroke-width:5;}
</style>
<g>
	<path class="st0" d="M65.6,64.6c18.8-7.9,39.1-11.9,61.2-11.9c22,0,42.4,4,61.2,11.9c18.8,7.9,33.6,18.7,44.4,32.3
		c10.8,13.6,16.3,28.4,16.3,44.5c0,16-5.4,30.9-16.3,44.5c-10.8,13.6-25.6,24.4-44.4,32.3c-18.8,7.9-39.1,11.9-61.2,11.9
		c-9.9,0-20.1-0.9-30.5-2.8c-14.3,10.2-30.4,17.5-48.1,22.2c-4.2,1-9.1,2-14.9,2.8h-0.5c-1.3,0-2.5-0.5-3.5-1.4
		c-1.1-0.9-1.8-2.1-2-3.6c-0.1-0.3-0.2-0.7-0.2-1.1s0-0.8,0.1-1.1c0.1-0.3,0.2-0.7,0.3-1c0.2-0.3,0.3-0.6,0.4-0.9
		c0.1-0.2,0.3-0.5,0.6-1c0.3-0.4,0.5-0.7,0.7-0.9c0.2-0.2,0.4-0.5,0.8-0.9c0.3-0.4,0.6-0.7,0.7-0.8c0.6-0.7,1.9-2.1,4-4.3
		c2.1-2.2,3.6-3.9,4.5-5.1c0.9-1.2,2.2-2.9,3.9-5c1.7-2.1,3.1-4.4,4.3-6.7c1.2-2.3,2.4-4.8,3.5-7.6c-14.3-8.3-25.6-18.5-33.8-30.6
		C9,168,4.9,155.1,4.9,141.4c0-16,5.4-30.9,16.3-44.5C32,83.3,46.8,72.5,65.6,64.6z M176.3,83.9c-15.3-6-31.9-9-49.5-9
		s-34.2,3-49.5,9c-15.3,6-27.6,14.1-36.6,24.4c-9.1,10.3-13.6,21.3-13.6,33.1c0,9.5,3.1,18.6,9.2,27.3c6.1,8.8,14.7,16.4,25.8,22.8
		l16.8,9.7l-6.1,14.5c3.9-2.3,7.5-4.6,10.7-6.8l7.6-5.4l9.2,1.7c9,1.6,17.8,2.4,26.5,2.4c17.7,0,34.2-3,49.5-9
		c15.3-6,27.5-14.1,36.6-24.4c9.1-10.3,13.6-21.3,13.6-33.1s-4.5-22.8-13.6-33.1C203.8,98.1,191.6,89.9,176.3,83.9z M269.1,255.1
		c1.2,2.8,2.3,5.3,3.5,7.6c1.2,2.3,2.7,4.5,4.3,6.7c1.7,2.1,3,3.8,3.9,5c0.9,1.2,2.4,2.9,4.5,5.1c2.1,2.2,3.4,3.6,4,4.3
		c0.1,0.1,0.3,0.4,0.7,0.8c0.3,0.4,0.6,0.7,0.8,0.9s0.4,0.5,0.7,0.9c0.3,0.4,0.5,0.7,0.6,1c0.1,0.2,0.3,0.5,0.4,0.9
		c0.2,0.3,0.3,0.7,0.3,1c0.1,0.3,0.1,0.7,0.1,1.1c0,0.4-0.1,0.8-0.2,1.1c-0.3,1.6-1.1,2.9-2.2,3.8c-1.2,0.9-2.4,1.3-3.8,1.2
		c-5.8-0.8-10.7-1.7-14.9-2.8c-17.8-4.6-33.8-12-48.1-22.2c-10.4,1.8-20.5,2.8-30.5,2.8c-31.3,0-58.5-7.6-81.7-22.8
		c6.7,0.5,11.8,0.7,15.2,0.7c18.6,0,36.4-2.6,53.5-7.8c17.1-5.2,32.3-12.6,45.7-22.3c14.4-10.6,25.5-22.8,33.2-36.7
		c7.7-13.8,11.6-28.5,11.6-44c0-8.9-1.3-17.7-4-26.3c14.9,8.2,26.7,18.5,35.3,30.8c8.7,12.3,13,25.6,13,39.8
		c0,13.8-4.1,26.8-12.3,38.9C294.6,236.6,283.4,246.8,269.1,255.1z"/>
</g>
</svg>
