<?xml version="1.0" encoding="utf-8"?>
<!-- Generator: Adobe Illustrator 19.1.0, SVG Export Plug-In . SVG Version: 6.00 Build 0)  -->
<!DOCTYPE svg PUBLIC "-//W3C//DTD SVG 1.1//EN" "http://www.w3.org/Graphics/SVG/1.1/DTD/svg11.dtd">
<svg version="1.1" id="Layer_1" xmlns="http://www.w3.org/2000/svg" xmlns:xlink="http://www.w3.org/1999/xlink" x="0px" y="0px"
	 viewBox="0 0 900 400" style="enable-background:new 0 0 900 400;" xml:space="preserve">
<style type="text/css">
	.st0{fill:none;stroke:#000000;}
</style>
<g>
	<path class="st0" d="M318.8,206.4l-8.2-32.4h4.4l3.8,16.4c1,4,1.8,8.1,2.4,11.2h0.1c0.5-3.2,1.5-7.1,2.6-11.2l4.3-16.3h4.4
		l3.9,16.4c0.9,3.8,1.8,7.7,2.3,11.1h0.1c0.7-3.6,1.6-7.2,2.6-11.2l4.3-16.3h4.3l-9.2,32.4h-4.4l-4.1-16.8c-1-4.1-1.7-7.3-2.1-10.6
		h-0.1c-0.6,3.2-1.3,6.4-2.5,10.6l-4.6,16.8H318.8z"/>
	<path class="st0" d="M354.7,195.5c0.1,5.7,3.7,8.1,8,8.1c3,0,4.8-0.5,6.4-1.2l0.7,3c-1.5,0.7-4,1.4-7.7,1.4
		c-7.2,0-11.4-4.7-11.4-11.7c0-7,4.1-12.5,10.9-12.5c7.6,0,9.6,6.7,9.6,10.9c0,0.9-0.1,1.5-0.1,2H354.7z M367.1,192.5
		c0-2.7-1.1-6.9-5.9-6.9c-4.3,0-6.1,3.9-6.5,6.9H367.1z"/>
	<path class="st0" d="M376.4,172.3h4.2v34.1h-4.2V172.3z"/>
	<path class="st0" d="M404.3,205.5c-1.1,0.6-3.6,1.3-6.7,1.3c-7,0-11.6-4.8-11.6-11.9c0-7.2,4.9-12.3,12.5-12.3
		c2.5,0,4.7,0.6,5.9,1.2l-1,3.3c-1-0.6-2.6-1.1-4.9-1.1c-5.3,0-8.2,3.9-8.2,8.8c0,5.4,3.5,8.7,8.1,8.7c2.4,0,4-0.6,5.2-1.2
		L404.3,205.5z"/>
	<path class="st0" d="M430,194.6c0,8.6-6,12.3-11.6,12.3c-6.3,0-11.1-4.6-11.1-12c0-7.8,5.1-12.3,11.5-12.3
		C425.5,182.6,430,187.5,430,194.6z M411.5,194.8c0,5.1,2.9,8.9,7.1,8.9c4,0,7.1-3.8,7.1-9c0-3.9-2-8.9-7-8.9
		C413.7,185.8,411.5,190.4,411.5,194.8z"/>
	<path class="st0" d="M435.3,189.4c0-2.4,0-4.4-0.2-6.3h3.7l0.2,3.7h0.1c1.3-2.2,3.5-4.3,7.3-4.3c3.2,0,5.6,1.9,6.6,4.7h0.1
		c0.7-1.3,1.6-2.3,2.6-3c1.4-1.1,2.9-1.6,5.1-1.6c3.1,0,7.6,2,7.6,10.1v13.7h-4.1v-13.2c0-4.5-1.6-7.2-5-7.2c-2.4,0-4.3,1.8-5,3.8
		c-0.2,0.6-0.3,1.3-0.3,2.1v14.4h-4.1v-13.9c0-3.7-1.6-6.4-4.8-6.4c-2.6,0-4.6,2.1-5.2,4.2c-0.2,0.6-0.3,1.3-0.3,2.1v14h-4.1V189.4z
		"/>
	<path class="st0" d="M477.7,195.5c0.1,5.7,3.7,8.1,8,8.1c3,0,4.8-0.5,6.4-1.2l0.7,3c-1.5,0.7-4,1.4-7.7,1.4
		c-7.2,0-11.4-4.7-11.4-11.7c0-7,4.1-12.5,10.9-12.5c7.6,0,9.6,6.7,9.6,10.9c0,0.9-0.1,1.5-0.1,2H477.7z M490.1,192.5
		c0-2.7-1.1-6.9-5.9-6.9c-4.3,0-6.1,3.9-6.5,6.9H490.1z"/>
</g>
</svg>
